  0
SECTION
  2
HEADER
  9
$ACADVER
  1
AC1009
  9
$FILLMODE
 70
0
  9
$EXTMIN
 10
-1.0160
 20
-0.0650
 30
0.0000
  9
$EXTMAX
 10
87.8988
 20
43.4150
 30
0.0000
  0
ENDSEC
  0
SECTION
  2
TABLES
  0
TABLE
  2
LTYPE
 70
1
  0
LTYPE
  2
CONTINUOUS
 70
64
  3
Solid line
 72
65
 73
0
 40
0
  0
ENDTAB
  0
TABLE
  2
LAYER
 70
255
  0
LAYER
  2
19
 70
64
 62
53
  6
CONTINUOUS
  0
LAYER
  2
20
 70
64
 62
30
  6
CONTINUOUS
  0
LAYER
  2
21
 70
64
 62
253
  6
CONTINUOUS
  0
LAYER
  2
22
 70
64
 62
253
  6
CONTINUOUS
  0
LAYER
  2
23
 70
64
 62
7
  6
CONTINUOUS
  0
LAYER
  2
24
 70
64
 62
7
  6
CONTINUOUS
  0
LAYER
  2
25
 70
64
 62
253
  6
CONTINUOUS
  0
LAYER
  2
26
 70
64
 62
253
  6
CONTINUOUS
  0
LAYER
  2
28
 70
64
 62
253
  6
CONTINUOUS
  0
LAYER
  2
48
 70
64
 62
253
  6
CONTINUOUS
  0
LAYER
  2
49
 70
64
 62
253
  6
CONTINUOUS
  0
LAYER
  2
51
 70
64
 62
253
  6
CONTINUOUS
  0
LAYER
  2
52
 70
64
 62
253
  6
CONTINUOUS
  0
ENDTAB
  0
ENDSEC
  0
SECTION
  2
BLOCKS
  0
BLOCK
  8
0
  2
RECT
 70
64
 10
0.0000
 20
0.0000
 30
0.0000
  3
RECT
  0
SOLID
  8
0
 10
-0.5000
 20
-0.5000
 30
0.0000
 11
0.5000
 21
-0.5000
 31
0.0000
 12
-0.5000
 22
0.5000
 32
0.0000
 13
0.5000
 23
0.5000
 33
0.0000
  0
ENDBLK
  8
0
  0
BLOCK
  8
0
  2
PIE
 70
64
 10
0.0000
 20
0.0000
 30
0.0000
  3
PIE
  0
CIRCLE
  8
0
 10
0.0000
 20
0.0000
 30
0.0000
 40
0.5000
  0
ENDBLK
  8
0
  0
BLOCK
  8
0
  2
OCTAGONP
 70
64
 10
0.0000
 20
0.0000
 30
0.0000
  3
OCTAGONP
  0
POLYLINE
  8
0
 66
1
 10
0.0000
 20
0.0000
 30
0.0000
 40
0.0000
 41
0.0000
 70
1
  0
VERTEX
  8
0
 10
-0.5000
 20
-0.2071
 30
0.0000
  0
VERTEX
  8
0
 10
-0.5000
 20
0.2071
 30
0.0000
  0
VERTEX
  8
0
 10
-0.2071
 20
0.5000
 30
0.0000
  0
VERTEX
  8
0
 10
0.2071
 20
0.5000
 30
0.0000
  0
VERTEX
  8
0
 10
0.5000
 20
0.2071
 30
0.0000
  0
VERTEX
  8
0
 10
0.5000
 20
-0.2071
 30
0.0000
  0
VERTEX
  8
0
 10
0.2071
 20
-0.5000
 30
0.0000
  0
VERTEX
  8
0
 10
-0.2071
 20
-0.5000
 30
0.0000
  0
SEQEND
  8
0
  0
ENDBLK
  8
0
  0
BLOCK
  8
0
  2
SQUAREP
 70
64
 10
0.0000
 20
0.0000
 30
0.0000
  3
SQUAREP
  0
SOLID
  8
0
 10
-0.5000
 20
-0.5000
 30
0.0000
 11
0.5000
 21
-0.5000
 31
0.0000
 12
-0.5000
 22
0.5000
 32
0.0000
 13
0.5000
 23
0.5000
 33
0.0000
  0
ENDBLK
  8
0
  0
BLOCK
  8
0
  2
ROUNDP
 70
64
 10
0.0000
 20
0.0000
 30
0.0000
  3
ROUNDP
  0
CIRCLE
  8
0
 10
0.0000
 20
0.0000
 30
0.0000
 40
0.5000
  0
ENDBLK
  8
0
  0
BLOCK
  8
0
  2
ANNULUSP
 70
64
 10
0.0000
 20
0.0000
 30
0.0000
  3
ANNULUSP
  0
CIRCLE
  8
0
 10
0.0000
 20
0.0000
 30
0.0000
 40
0.5000
  0
ENDBLK
  8
0
  0
BLOCK
  8
0
  2
THERMALP
 70
64
 10
0.0000
 20
0.0000
 30
0.0000
  3
THERMALP
  0
LINE
  8
0
 10
-0.2379
 20
0.4500
 30
0.0000
 11
0.2379
 21
0.4500
 31
0.0000
  0
LINE
  8
0
 10
0.4500
 20
0.2379
 30
0.0000
 11
0.4500
 21
-0.2379
 31
0.0000
  0
LINE
  8
0
 10
0.2379
 20
-0.4500
 30
0.0000
 11
-0.2379
 21
-0.4500
 31
0.0000
  0
LINE
  8
0
 10
-0.4500
 20
-0.2379
 30
0.0000
 11
-0.4500
 21
0.2379
 31
0.0000
  0
ENDBLK
  8
0
  0
BLOCK
  8
0
  2
OCTAGONV
 70
64
 10
0.0000
 20
0.0000
 30
0.0000
  3
OCTAGONV
  0
POLYLINE
  8
0
 66
1
 10
0.0000
 20
0.0000
 30
0.0000
 40
0.0000
 41
0.0000
 70
1
  0
VERTEX
  8
0
 10
-0.5000
 20
-0.2071
 30
0.0000
  0
VERTEX
  8
0
 10
-0.5000
 20
0.2071
 30
0.0000
  0
VERTEX
  8
0
 10
-0.2071
 20
0.5000
 30
0.0000
  0
VERTEX
  8
0
 10
0.2071
 20
0.5000
 30
0.0000
  0
VERTEX
  8
0
 10
0.5000
 20
0.2071
 30
0.0000
  0
VERTEX
  8
0
 10
0.5000
 20
-0.2071
 30
0.0000
  0
VERTEX
  8
0
 10
0.2071
 20
-0.5000
 30
0.0000
  0
VERTEX
  8
0
 10
-0.2071
 20
-0.5000
 30
0.0000
  0
SEQEND
  8
0
  0
ENDBLK
  8
0
  0
BLOCK
  8
0
  2
SQUAREV
 70
64
 10
0.0000
 20
0.0000
 30
0.0000
  3
SQUAREV
  0
SOLID
  8
0
 10
-0.5000
 20
-0.5000
 30
0.0000
 11
0.5000
 21
-0.5000
 31
0.0000
 12
-0.5000
 22
0.5000
 32
0.0000
 13
0.5000
 23
0.5000
 33
0.0000
  0
ENDBLK
  8
0
  0
BLOCK
  8
0
  2
ROUNDV
 70
64
 10
0.0000
 20
0.0000
 30
0.0000
  3
ROUNDV
  0
CIRCLE
  8
0
 10
0.0000
 20
0.0000
 30
0.0000
 40
0.5000
  0
ENDBLK
  8
0
  0
BLOCK
  8
0
  2
ANNULUSV
 70
64
 10
0.0000
 20
0.0000
 30
0.0000
  3
ANNULUSV
  0
CIRCLE
  8
0
 10
0.0000
 20
0.0000
 30
0.0000
 40
0.5000
  0
ENDBLK
  8
0
  0
BLOCK
  8
0
  2
THERMALV
 70
64
 10
0.0000
 20
0.0000
 30
0.0000
  3
THERMALV
  0
LINE
  8
0
 10
-0.2379
 20
0.4500
 30
0.0000
 11
0.2379
 21
0.4500
 31
0.0000
  0
LINE
  8
0
 10
0.4500
 20
0.2379
 30
0.0000
 11
0.4500
 21
-0.2379
 31
0.0000
  0
LINE
  8
0
 10
0.2379
 20
-0.4500
 30
0.0000
 11
-0.2379
 21
-0.4500
 31
0.0000
  0
LINE
  8
0
 10
-0.4500
 20
-0.2379
 30
0.0000
 11
-0.4500
 21
0.2379
 31
0.0000
  0
ENDBLK
  8
0
  0
ENDSEC
  0
SECTION
  2
ENTITIES
  0
LINE
  8
20
 10
0.0000
 20
0.0000
 30
0.0000
 11
76.0000
 21
0.0000
 31
0.0000
  0
LINE
  8
20
 10
0.0000
 20
16.0000
 30
0.0000
 11
0.0000
 21
0.0000
 31
0.0000
  0
LINE
  8
20
 10
0.0000
 20
16.0000
 30
0.0000
 11
76.0000
 21
16.0000
 31
0.0000
  0
LINE
  8
20
 10
76.0000
 20
16.0000
 30
0.0000
 11
76.0000
 21
0.0000
 31
0.0000
  0
LINE
  8
21
 10
47.9354
 20
2.2296
 30
0.0000
 11
48.2600
 21
2.4892
 31
0.0000
  0
LINE
  8
21
 10
48.2600
 20
2.4892
 30
0.0000
 11
48.2600
 21
1.3208
 31
0.0000
  0
LINE
  8
21
 10
47.9354
 20
1.3208
 30
0.0000
 11
48.5846
 21
1.3208
 31
0.0000
  0
ARC
  8
21
 10
45.7525
 20
2.1971
 30
0.0000
 40
0.2921
 50
0.0000
 51
90.0000
  0
ARC
  8
21
 10
45.7525
 20
2.1139
 30
0.0000
 40
0.3753
 50
90.0001
 51
162.0549
  0
ARC
  8
21
 10
45.7308
 20
2.1971
 30
0.0000
 40
0.3138
 50
313.6040
 51
359.9996
  0
LINE
  8
21
 10
45.9472
 20
1.9699
 30
0.0000
 11
45.3954
 21
1.3208
 31
0.0000
  0
LINE
  8
21
 10
45.3954
 20
1.3208
 30
0.0000
 11
46.0446
 21
1.3208
 31
0.0000
  0
LINE
  8
21
 10
42.8554
 20
1.3208
 30
0.0000
 11
43.1800
 21
1.3208
 31
0.0000
  0
ARC
  8
21
 10
43.1800
 20
1.6454
 30
0.0000
 40
0.3246
 50
270.0000
 51
90.0000
  0
LINE
  8
21
 10
42.8554
 20
2.4892
 30
0.0000
 11
43.2449
 21
2.4892
 31
0.0000
  0
ARC
  8
21
 10
43.2449
 20
2.2296
 30
0.0000
 40
0.2596
 50
270.0000
 51
90.0000
  0
LINE
  8
21
 10
43.2449
 20
1.9699
 30
0.0000
 11
42.9853
 21
1.9699
 31
0.0000
  0
LINE
  8
21
 10
40.5751
 20
2.4892
 30
0.0000
 11
40.3154
 21
1.5804
 31
0.0000
  0
LINE
  8
21
 10
40.3154
 20
1.5804
 30
0.0000
 11
40.9646
 21
1.5804
 31
0.0000
  0
LINE
  8
21
 10
40.7698
 20
1.8401
 30
0.0000
 11
40.7698
 21
1.3208
 31
0.0000
  0
LINE
  8
21
 10
37.7754
 20
1.3208
 30
0.0000
 11
38.1649
 21
1.3208
 31
0.0000
  0
ARC
  8
21
 10
38.1649
 20
1.5804
 30
0.0000
 40
0.2596
 50
270.0000
 51
0.0000
  0
LINE
  8
21
 10
38.4246
 20
1.5804
 30
0.0000
 11
38.4246
 21
1.7103
 31
0.0000
  0
ARC
  8
21
 10
38.1649
 20
1.7103
 30
0.0000
 40
0.2596
 50
0.0000
 51
90.0000
  0
LINE
  8
21
 10
38.1649
 20
1.9699
 30
0.0000
 11
37.7754
 21
1.9699
 31
0.0000
  0
LINE
  8
21
 10
37.7754
 20
1.9699
 30
0.0000
 11
37.7754
 21
2.4892
 31
0.0000
  0
LINE
  8
21
 10
37.7754
 20
2.4892
 30
0.0000
 11
38.4246
 21
2.4892
 31
0.0000
  0
LINE
  8
21
 10
35.2354
 20
1.9699
 30
0.0000
 11
35.6249
 21
1.9699
 31
0.0000
  0
ARC
  8
21
 10
35.6249
 20
1.7103
 30
0.0000
 40
0.2596
 50
0.0000
 51
90.0000
  0
LINE
  8
21
 10
35.8846
 20
1.7103
 30
0.0000
 11
35.8846
 21
1.6454
 31
0.0000
  0
ARC
  8
21
 10
35.5600
 20
1.6454
 30
0.0000
 40
0.3246
 50
180.0000
 51
0.0000
  0
LINE
  8
21
 10
35.2354
 20
1.6454
 30
0.0000
 11
35.2354
 21
1.9699
 31
0.0000
  0
ARC
  8
21
 10
35.7547
 20
1.9699
 30
0.0000
 40
0.5193
 50
90.0003
 51
180.0000
  0
LINE
  8
21
 10
32.6954
 20
2.3594
 30
0.0000
 11
32.6954
 21
2.4892
 31
0.0000
  0
LINE
  8
21
 10
32.6954
 20
2.4892
 30
0.0000
 11
33.3446
 21
2.4892
 31
0.0000
  0
LINE
  8
21
 10
33.3446
 20
2.4892
 30
0.0000
 11
33.0200
 21
1.3208
 31
0.0000
  0
ARC
  8
21
 10
30.4800
 20
1.6454
 30
0.0000
 40
0.3246
 50
0.0000
 51
180.0000
  0
ARC
  8
21
 10
30.4800
 20
1.6454
 30
0.0000
 40
0.3246
 50
180.0000
 51
0.0000
  0
ARC
  8
21
 10
30.4800
 20
2.2296
 30
0.0000
 40
0.2596
 50
0.0000
 51
180.0000
  0
ARC
  8
21
 10
30.4800
 20
2.2296
 30
0.0000
 40
0.2596
 50
180.0000
 51
0.0000
  0
LINE
  8
21
 10
28.2646
 20
1.8401
 30
0.0000
 11
27.8751
 21
1.8401
 31
0.0000
  0
ARC
  8
21
 10
27.8751
 20
2.0997
 30
0.0000
 40
0.2596
 50
180.0000
 51
270.0000
  0
LINE
  8
21
 10
27.6154
 20
2.0997
 30
0.0000
 11
27.6154
 21
2.1646
 31
0.0000
  0
ARC
  8
21
 10
27.9400
 20
2.1646
 30
0.0000
 40
0.3246
 50
0.0000
 51
180.0000
  0
LINE
  8
21
 10
28.2646
 20
2.1646
 30
0.0000
 11
28.2646
 21
1.8401
 31
0.0000
  0
ARC
  8
21
 10
27.7453
 20
1.8401
 30
0.0000
 40
0.5193
 50
270.0000
 51
0.0000
  0
LINE
  8
21
 10
57.2008
 20
11.1633
 30
0.0000
 11
57.2008
 21
12.3317
 31
0.0000
  0
LINE
  8
21
 10
57.2008
 20
12.3317
 30
0.0000
 11
57.8499
 21
11.1633
 31
0.0000
  0
LINE
  8
21
 10
57.8499
 20
11.1633
 30
0.0000
 11
57.8499
 21
12.3317
 31
0.0000
  0
LINE
  8
21
 10
58.3819
 20
11.4879
 30
0.0000
 11
58.3819
 21
12.0071
 31
0.0000
  0
ARC
  8
21
 10
58.7065
 20
12.0071
 30
0.0000
 40
0.3246
 50
0.0000
 51
180.0000
  0
LINE
  8
21
 10
59.0310
 20
12.0071
 30
0.0000
 11
59.0310
 21
11.4879
 31
0.0000
  0
ARC
  8
21
 10
58.7065
 20
11.4879
 30
0.0000
 40
0.3246
 50
180.0000
 51
0.0000
  0
LINE
  8
21
 10
59.5704
 20
11.1633
 30
0.0000
 11
59.5704
 21
12.3317
 31
0.0000
  0
LINE
  8
21
 10
59.5704
 20
12.3317
 30
0.0000
 11
59.8949
 21
12.3317
 31
0.0000
  0
ARC
  8
21
 10
59.8949
 20
12.0071
 30
0.0000
 40
0.3246
 50
270.0000
 51
90.0000
  0
LINE
  8
21
 10
59.8949
 20
11.6826
 30
0.0000
 11
59.5704
 21
11.6826
 31
0.0000
  0
LINE
  8
21
 10
60.2195
 20
11.1633
 30
0.0000
 11
59.9598
 21
11.6826
 31
0.0000
  0
LINE
  8
21
 10
60.9543
 20
11.1633
 30
0.0000
 11
60.9543
 21
12.3317
 31
0.0000
  0
LINE
  8
21
 10
60.6298
 20
12.3317
 30
0.0000
 11
61.2789
 21
12.3317
 31
0.0000
  0
LINE
  8
21
 10
61.7347
 20
11.1633
 30
0.0000
 11
61.7347
 21
12.3317
 31
0.0000
  0
LINE
  8
21
 10
61.7347
 20
11.8124
 30
0.0000
 11
62.3838
 21
11.8124
 31
0.0000
  0
LINE
  8
21
 10
62.3838
 20
12.3317
 30
0.0000
 11
62.3838
 21
11.1633
 31
0.0000
  0
ARC
  8
21
 10
57.5903
 20
8.8829
 30
0.0000
 40
0.2596
 50
270.0000
 51
0.0000
  0
ARC
  8
21
 10
57.5903
 20
9.1718
 30
0.0000
 40
0.5485
 50
224.7610
 51
269.9999
  0
ARC
  8
21
 10
57.4929
 20
9.5321
 30
0.0000
 40
0.2596
 50
89.9993
 51
180.0000
  0
ARC
  8
21
 10
57.4929
 20
9.3049
 30
0.0000
 40
0.4868
 50
53.1301
 51
89.9993
  0
ARC
  8
21
 10
57.4970
 20
9.5321
 30
0.0000
 40
0.2637
 50
179.9998
 51
239.4902
  0
ARC
  8
21
 10
57.5862
 20
8.8829
 30
0.0000
 40
0.2637
 50
0.0001
 51
59.4899
  0
LINE
  8
21
 10
57.7201
 20
9.1101
 30
0.0000
 11
57.3631
 21
9.3049
 31
0.0000
  0
LINE
  8
21
 10
58.3057
 20
8.9479
 30
0.0000
 11
58.3057
 21
9.4671
 31
0.0000
  0
ARC
  8
21
 10
58.6303
 20
9.4671
 30
0.0000
 40
0.3246
 50
0.0000
 51
180.0000
  0
LINE
  8
21
 10
58.9548
 20
9.4671
 30
0.0000
 11
58.9548
 21
8.9479
 31
0.0000
  0
ARC
  8
21
 10
58.6303
 20
8.9479
 30
0.0000
 40
0.3246
 50
180.0000
 51
0.0000
  0
LINE
  8
21
 10
59.4868
 20
9.7917
 30
0.0000
 11
59.4868
 21
8.9479
 31
0.0000
  0
ARC
  8
21
 10
59.8113
 20
8.9479
 30
0.0000
 40
0.3246
 50
180.0000
 51
0.0000
  0
LINE
  8
21
 10
60.1359
 20
8.9479
 30
0.0000
 11
60.1359
 21
9.7917
 31
0.0000
  0
LINE
  8
21
 10
60.9162
 20
8.6233
 30
0.0000
 11
60.9162
 21
9.7917
 31
0.0000
  0
LINE
  8
21
 10
60.5917
 20
9.7917
 30
0.0000
 11
61.2408
 21
9.7917
 31
0.0000
  0
LINE
  8
21
 10
61.6966
 20
8.6233
 30
0.0000
 11
61.6966
 21
9.7917
 31
0.0000
  0
LINE
  8
21
 10
61.6966
 20
9.2724
 30
0.0000
 11
62.3457
 21
9.2724
 31
0.0000
  0
LINE
  8
21
 10
62.3457
 20
9.7917
 30
0.0000
 11
62.3457
 21
8.6233
 31
0.0000
  0
LINE
  8
21
 10
57.2008
 20
7.4104
 30
0.0000
 11
57.4604
 21
6.2420
 31
0.0000
  0
LINE
  8
21
 10
57.4604
 20
6.2420
 30
0.0000
 11
57.7201
 21
7.0210
 31
0.0000
  0
LINE
  8
21
 10
57.7201
 20
7.0210
 30
0.0000
 11
57.9797
 21
6.2420
 31
0.0000
  0
LINE
  8
21
 10
57.9797
 20
6.2420
 30
0.0000
 11
58.2394
 21
7.4104
 31
0.0000
  0
LINE
  8
21
 10
59.2506
 20
6.2420
 30
0.0000
 11
58.7313
 21
6.2420
 31
0.0000
  0
LINE
  8
21
 10
58.7313
 20
6.2420
 30
0.0000
 11
58.7313
 21
7.4104
 31
0.0000
  0
LINE
  8
21
 10
58.7313
 20
7.4104
 30
0.0000
 11
59.2506
 21
7.4104
 31
0.0000
  0
LINE
  8
21
 10
58.7313
 20
6.8912
 30
0.0000
 11
59.1208
 21
6.8912
 31
0.0000
  0
ARC
  8
21
 10
60.0329
 20
6.5017
 30
0.0000
 40
0.2596
 50
270.0000
 51
0.0000
  0
ARC
  8
21
 10
60.0329
 20
6.7906
 30
0.0000
 40
0.5485
 50
224.7610
 51
269.9999
  0
ARC
  8
21
 10
59.9355
 20
7.1508
 30
0.0000
 40
0.2596
 50
89.9993
 51
180.0000
  0
ARC
  8
21
 10
59.9355
 20
6.9236
 30
0.0000
 40
0.4868
 50
53.1301
 51
89.9993
  0
ARC
  8
21
 10
59.9396
 20
7.1508
 30
0.0000
 40
0.2637
 50
179.9998
 51
239.4902
  0
ARC
  8
21
 10
60.0288
 20
6.5017
 30
0.0000
 40
0.2637
 50
0.0001
 51
59.4899
  0
LINE
  8
21
 10
60.1627
 20
6.7289
 30
0.0000
 11
59.8057
 21
6.9236
 31
0.0000
  0
LINE
  8
21
 10
60.9967
 20
6.2420
 30
0.0000
 11
60.9967
 21
7.4104
 31
0.0000
  0
LINE
  8
21
 10
60.6721
 20
7.4104
 30
0.0000
 11
61.3212
 21
7.4104
 31
0.0000
  0
LINE
  8
21
 10
57.7201
 20
3.7021
 30
0.0000
 11
57.2008
 21
3.7021
 31
0.0000
  0
LINE
  8
21
 10
57.2008
 20
3.7021
 30
0.0000
 11
57.2008
 21
4.8704
 31
0.0000
  0
LINE
  8
21
 10
57.2008
 20
4.8704
 30
0.0000
 11
57.7201
 21
4.8704
 31
0.0000
  0
LINE
  8
21
 10
57.2008
 20
4.3512
 30
0.0000
 11
57.5903
 21
4.3512
 31
0.0000
  0
LINE
  8
21
 10
58.0861
 20
3.7021
 30
0.0000
 11
58.4756
 21
4.8704
 31
0.0000
  0
LINE
  8
21
 10
58.4756
 20
4.8704
 30
0.0000
 11
58.8651
 21
3.7021
 31
0.0000
  0
LINE
  8
21
 10
58.7677
 20
3.9942
 30
0.0000
 11
58.1835
 21
3.9942
 31
0.0000
  0
ARC
  8
21
 10
59.6454
 20
3.9617
 30
0.0000
 40
0.2596
 50
270.0000
 51
0.0000
  0
ARC
  8
21
 10
59.6454
 20
4.2506
 30
0.0000
 40
0.5485
 50
224.7610
 51
269.9999
  0
ARC
  8
21
 10
59.5480
 20
4.6108
 30
0.0000
 40
0.2596
 50
89.9993
 51
180.0000
  0
ARC
  8
21
 10
59.5480
 20
4.3836
 30
0.0000
 40
0.4868
 50
53.1301
 51
89.9993
  0
ARC
  8
21
 10
59.5521
 20
4.6108
 30
0.0000
 40
0.2637
 50
179.9998
 51
239.4902
  0
ARC
  8
21
 10
59.6414
 20
3.9617
 30
0.0000
 40
0.2637
 50
0.0001
 51
59.4899
  0
LINE
  8
21
 10
59.7752
 20
4.1889
 30
0.0000
 11
59.4182
 21
4.3836
 31
0.0000
  0
LINE
  8
21
 10
60.6092
 20
3.7021
 30
0.0000
 11
60.6092
 21
4.8704
 31
0.0000
  0
LINE
  8
21
 10
60.2846
 20
4.8704
 30
0.0000
 11
60.9337
 21
4.8704
 31
0.0000
  0
LINE
  8
21
 10
14.8599
 20
9.9505
 30
0.0000
 11
14.8599
 21
8.7820
 31
0.0000
  0
LINE
  8
21
 10
14.8599
 20
8.7820
 30
0.0000
 11
15.3791
 21
8.7820
 31
0.0000
  0
LINE
  8
21
 10
16.3697
 20
8.7820
 30
0.0000
 11
15.8505
 21
8.7820
 31
0.0000
  0
LINE
  8
21
 10
15.8505
 20
8.7820
 30
0.0000
 11
15.8505
 21
9.9505
 31
0.0000
  0
LINE
  8
21
 10
15.8505
 20
9.9505
 30
0.0000
 11
16.3697
 21
9.9505
 31
0.0000
  0
LINE
  8
21
 10
15.8505
 20
9.4312
 30
0.0000
 11
16.2399
 21
9.4312
 31
0.0000
  0
LINE
  8
21
 10
16.8410
 20
8.7820
 30
0.0000
 11
16.8410
 21
9.9505
 31
0.0000
  0
LINE
  8
21
 10
16.8410
 20
9.9505
 30
0.0000
 11
17.3603
 21
9.9505
 31
0.0000
  0
LINE
  8
21
 10
16.8410
 20
9.4312
 30
0.0000
 11
17.3603
 21
9.4312
 31
0.0000
  0
LINE
  8
21
 10
18.0396
 20
8.7820
 30
0.0000
 11
18.0396
 21
9.9505
 31
0.0000
  0
LINE
  8
21
 10
17.7151
 20
9.9505
 30
0.0000
 11
18.3642
 21
9.9505
 31
0.0000
  0
LINE
  8
21
 10
13.5315
 20
6.0833
 30
0.0000
 11
13.5315
 21
7.2517
 31
0.0000
  0
LINE
  8
21
 10
13.5315
 20
7.2517
 30
0.0000
 11
13.8560
 21
7.2517
 31
0.0000
  0
ARC
  8
21
 10
13.8560
 20
6.9271
 30
0.0000
 40
0.3246
 50
270.0000
 51
90.0000
  0
LINE
  8
21
 10
13.8560
 20
6.6026
 30
0.0000
 11
13.5315
 21
6.6026
 31
0.0000
  0
LINE
  8
21
 10
14.1806
 20
6.0833
 30
0.0000
 11
13.9209
 21
6.6026
 31
0.0000
  0
LINE
  8
21
 10
14.7631
 20
7.2517
 30
0.0000
 11
14.7631
 21
6.0833
 31
0.0000
  0
LINE
  8
21
 10
14.6332
 20
6.0833
 30
0.0000
 11
14.8929
 21
6.0833
 31
0.0000
  0
LINE
  8
21
 10
14.6332
 20
7.2517
 30
0.0000
 11
14.8929
 21
7.2517
 31
0.0000
  0
LINE
  8
21
 10
15.8454
 20
6.7324
 30
0.0000
 11
16.0401
 21
6.7324
 31
0.0000
  0
LINE
  8
21
 10
16.0401
 20
6.7324
 30
0.0000
 11
16.0401
 21
6.0833
 31
0.0000
  0
LINE
  8
21
 10
16.0401
 20
6.0833
 30
0.0000
 11
15.6506
 21
6.0833
 31
0.0000
  0
ARC
  8
21
 10
15.6506
 20
6.3429
 30
0.0000
 40
0.2596
 50
180.0000
 51
270.0000
  0
LINE
  8
21
 10
15.3910
 20
6.3429
 30
0.0000
 11
15.3910
 21
6.9921
 31
0.0000
  0
ARC
  8
21
 10
15.6506
 20
6.9921
 30
0.0000
 40
0.2596
 50
90.0007
 51
180.0000
  0
LINE
  8
21
 10
15.6506
 20
7.2517
 30
0.0000
 11
16.0401
 21
7.2517
 31
0.0000
  0
LINE
  8
21
 10
16.6102
 20
6.0833
 30
0.0000
 11
16.6102
 21
7.2517
 31
0.0000
  0
LINE
  8
21
 10
16.6102
 20
6.7324
 30
0.0000
 11
17.2593
 21
6.7324
 31
0.0000
  0
LINE
  8
21
 10
17.2593
 20
7.2517
 30
0.0000
 11
17.2593
 21
6.0833
 31
0.0000
  0
LINE
  8
21
 10
18.0396
 20
6.0833
 30
0.0000
 11
18.0396
 21
7.2517
 31
0.0000
  0
LINE
  8
21
 10
17.7151
 20
7.2517
 30
0.0000
 11
18.3642
 21
7.2517
 31
0.0000
  0
LINE
  8
21
 10
20.5366
 20
3.7021
 30
0.0000
 11
20.5366
 21
4.8704
 31
0.0000
  0
LINE
  8
21
 10
20.5366
 20
4.8704
 30
0.0000
 11
21.0559
 21
4.8704
 31
0.0000
  0
LINE
  8
21
 10
20.5366
 20
4.3512
 30
0.0000
 11
21.0559
 21
4.3512
 31
0.0000
  0
LINE
  8
21
 10
21.5828
 20
4.8704
 30
0.0000
 11
21.5828
 21
3.7021
 31
0.0000
  0
LINE
  8
21
 10
21.4530
 20
3.7021
 30
0.0000
 11
21.7126
 21
3.7021
 31
0.0000
  0
LINE
  8
21
 10
21.4530
 20
4.8704
 30
0.0000
 11
21.7126
 21
4.8704
 31
0.0000
  0
LINE
  8
21
 10
22.2181
 20
3.7021
 30
0.0000
 11
22.2181
 21
4.8704
 31
0.0000
  0
LINE
  8
21
 10
22.2181
 20
4.8704
 30
0.0000
 11
22.5427
 21
4.8704
 31
0.0000
  0
ARC
  8
21
 10
22.5427
 20
4.5459
 30
0.0000
 40
0.3246
 50
270.0000
 51
90.0000
  0
LINE
  8
21
 10
22.5427
 20
4.2213
 30
0.0000
 11
22.2181
 21
4.2213
 31
0.0000
  0
LINE
  8
21
 10
22.8672
 20
3.7021
 30
0.0000
 11
22.6076
 21
4.2213
 31
0.0000
  0
LINE
  8
21
 10
23.9134
 20
3.7021
 30
0.0000
 11
23.3941
 21
3.7021
 31
0.0000
  0
LINE
  8
21
 10
23.3941
 20
3.7021
 30
0.0000
 11
23.3941
 21
4.8704
 31
0.0000
  0
LINE
  8
21
 10
23.3941
 20
4.8704
 30
0.0000
 11
23.9134
 21
4.8704
 31
0.0000
  0
LINE
  8
21
 10
23.3941
 20
4.3512
 30
0.0000
 11
23.7836
 21
4.3512
 31
0.0000
  0
LINE
  8
21
 10
30.2563
 20
7.4831
 30
0.0000
 11
30.2563
 21
7.6779
 31
0.0000
  0
LINE
  8
21
 10
30.2563
 20
7.6779
 30
0.0000
 11
30.9055
 21
7.6779
 31
0.0000
  0
LINE
  8
21
 10
30.9055
 20
7.6779
 30
0.0000
 11
30.9055
 21
7.2884
 31
0.0000
  0
ARC
  8
21
 10
30.6458
 20
7.2884
 30
0.0000
 40
0.2596
 50
270.0000
 51
0.0000
  0
LINE
  8
21
 10
30.6458
 20
7.0288
 30
0.0000
 11
29.9967
 21
7.0288
 31
0.0000
  0
ARC
  8
21
 10
29.9967
 20
7.2884
 30
0.0000
 40
0.2596
 50
180.0014
 51
270.0000
  0
LINE
  8
21
 10
29.7370
 20
7.2884
 30
0.0000
 11
29.7370
 21
7.6779
 31
0.0000
  0
LINE
  8
21
 10
30.9055
 20
8.2479
 30
0.0000
 11
29.7370
 21
8.2479
 31
0.0000
  0
LINE
  8
21
 10
29.7370
 20
8.2479
 30
0.0000
 11
30.9055
 21
8.8971
 31
0.0000
  0
LINE
  8
21
 10
30.9055
 20
8.8971
 30
0.0000
 11
29.7370
 21
8.8971
 31
0.0000
  0
LINE
  8
21
 10
30.9055
 20
9.4671
 30
0.0000
 11
29.7370
 21
9.4671
 31
0.0000
  0
LINE
  8
21
 10
29.7370
 20
9.4671
 30
0.0000
 11
29.7370
 21
9.7917
 31
0.0000
  0
ARC
  8
21
 10
30.0616
 20
9.7917
 30
0.0000
 40
0.3246
 50
90.0000
 51
180.0000
  0
LINE
  8
21
 10
30.0616
 20
10.1163
 30
0.0000
 11
30.5809
 21
10.1163
 31
0.0000
  0
ARC
  8
21
 10
30.5809
 20
9.7917
 30
0.0000
 40
0.3246
 50
359.9994
 51
90.0000
  0
LINE
  8
21
 10
30.9055
 20
9.7917
 30
0.0000
 11
30.9055
 21
9.4671
 31
0.0000
  0
LINE
  8
21
 10
36.1442
 20
6.8841
 30
0.0000
 11
34.9758
 21
6.8841
 31
0.0000
  0
LINE
  8
21
 10
34.9758
 20
6.8841
 30
0.0000
 11
34.9758
 21
7.4034
 31
0.0000
  0
LINE
  8
21
 10
35.4951
 20
6.8841
 30
0.0000
 11
35.4951
 21
7.4034
 31
0.0000
  0
LINE
  8
21
 10
34.9758
 20
7.9303
 30
0.0000
 11
36.1442
 21
7.9303
 31
0.0000
  0
LINE
  8
21
 10
36.1442
 20
7.8005
 30
0.0000
 11
36.1442
 21
8.0601
 31
0.0000
  0
LINE
  8
21
 10
34.9758
 20
7.8005
 30
0.0000
 11
34.9758
 21
8.0601
 31
0.0000
  0
LINE
  8
21
 10
36.1442
 20
8.5656
 30
0.0000
 11
34.9758
 21
8.5656
 31
0.0000
  0
LINE
  8
21
 10
34.9758
 20
8.5656
 30
0.0000
 11
34.9758
 21
8.8902
 31
0.0000
  0
ARC
  8
21
 10
35.3004
 20
8.8902
 30
0.0000
 40
0.3246
 50
0.0000
 51
180.0000
  0
LINE
  8
21
 10
35.6249
 20
8.8902
 30
0.0000
 11
35.6249
 21
8.5656
 31
0.0000
  0
LINE
  8
21
 10
36.1442
 20
9.2147
 30
0.0000
 11
35.6249
 21
8.9551
 31
0.0000
  0
LINE
  8
21
 10
36.1442
 20
10.2609
 30
0.0000
 11
36.1442
 21
9.7416
 31
0.0000
  0
LINE
  8
21
 10
36.1442
 20
9.7416
 30
0.0000
 11
34.9758
 21
9.7416
 31
0.0000
  0
LINE
  8
21
 10
34.9758
 20
9.7416
 30
0.0000
 11
34.9758
 21
10.2609
 31
0.0000
  0
LINE
  8
21
 10
35.4951
 20
9.7416
 30
0.0000
 11
35.4951
 21
10.1311
 31
0.0000
  0
LINE
  8
21
 10
41.2242
 20
7.2253
 30
0.0000
 11
41.2242
 21
6.7060
 31
0.0000
  0
LINE
  8
21
 10
41.2242
 20
6.7060
 30
0.0000
 11
40.0558
 21
6.7060
 31
0.0000
  0
LINE
  8
21
 10
40.0558
 20
6.7060
 30
0.0000
 11
40.0558
 21
7.2253
 31
0.0000
  0
LINE
  8
21
 10
40.5751
 20
6.7060
 30
0.0000
 11
40.5751
 21
7.0955
 31
0.0000
  0
LINE
  8
21
 10
41.2242
 20
7.5914
 30
0.0000
 11
40.0558
 21
7.9808
 31
0.0000
  0
LINE
  8
21
 10
40.0558
 20
7.9808
 30
0.0000
 11
41.2242
 21
8.3703
 31
0.0000
  0
LINE
  8
21
 10
40.9321
 20
8.2729
 30
0.0000
 11
40.9321
 21
7.6887
 31
0.0000
  0
ARC
  8
21
 10
40.9646
 20
9.1506
 30
0.0000
 40
0.2596
 50
0.0000
 51
90.0000
  0
ARC
  8
21
 10
40.6757
 20
9.1506
 30
0.0000
 40
0.5485
 50
314.7610
 51
359.9999
  0
ARC
  8
21
 10
40.3154
 20
9.0533
 30
0.0000
 40
0.2596
 50
180.0000
 51
270.0000
  0
ARC
  8
21
 10
40.5426
 20
9.0533
 30
0.0000
 40
0.4868
 50
143.1294
 51
180.0000
  0
ARC
  8
21
 10
40.3154
 20
9.0573
 30
0.0000
 40
0.2637
 50
269.9998
 51
329.4902
  0
ARC
  8
21
 10
40.9646
 20
9.1466
 30
0.0000
 40
0.2637
 50
90.0001
 51
149.4899
  0
LINE
  8
21
 10
40.7374
 20
9.2805
 30
0.0000
 11
40.5426
 21
8.9234
 31
0.0000
  0
LINE
  8
21
 10
41.2242
 20
10.1144
 30
0.0000
 11
40.0558
 21
10.1144
 31
0.0000
  0
LINE
  8
21
 10
40.0558
 20
9.7899
 30
0.0000
 11
40.0558
 21
10.4390
 31
0.0000
  0
LINE
  8
21
 10
42.5958
 20
6.5123
 30
0.0000
 11
43.7642
 21
6.7719
 31
0.0000
  0
LINE
  8
21
 10
43.7642
 20
6.7719
 30
0.0000
 11
42.9853
 21
7.0316
 31
0.0000
  0
LINE
  8
21
 10
42.9853
 20
7.0316
 30
0.0000
 11
43.7642
 21
7.2912
 31
0.0000
  0
LINE
  8
21
 10
43.7642
 20
7.2912
 30
0.0000
 11
42.5958
 21
7.5509
 31
0.0000
  0
LINE
  8
21
 10
43.7642
 20
8.5621
 30
0.0000
 11
43.7642
 21
8.0428
 31
0.0000
  0
LINE
  8
21
 10
43.7642
 20
8.0428
 30
0.0000
 11
42.5958
 21
8.0428
 31
0.0000
  0
LINE
  8
21
 10
42.5958
 20
8.0428
 30
0.0000
 11
42.5958
 21
8.5621
 31
0.0000
  0
LINE
  8
21
 10
43.1151
 20
8.0428
 30
0.0000
 11
43.1151
 21
8.4322
 31
0.0000
  0
ARC
  8
21
 10
43.5046
 20
9.3444
 30
0.0000
 40
0.2596
 50
0.0000
 51
90.0000
  0
ARC
  8
21
 10
43.2157
 20
9.3444
 30
0.0000
 40
0.5485
 50
314.7610
 51
359.9999
  0
ARC
  8
21
 10
42.8554
 20
9.2470
 30
0.0000
 40
0.2596
 50
180.0000
 51
270.0000
  0
ARC
  8
21
 10
43.0826
 20
9.2470
 30
0.0000
 40
0.4868
 50
143.1294
 51
180.0000
  0
ARC
  8
21
 10
42.8554
 20
9.2511
 30
0.0000
 40
0.2637
 50
269.9998
 51
329.4902
  0
ARC
  8
21
 10
43.5046
 20
9.3403
 30
0.0000
 40
0.2637
 50
90.0001
 51
149.4899
  0
LINE
  8
21
 10
43.2774
 20
9.4742
 30
0.0000
 11
43.0826
 21
9.1172
 31
0.0000
  0
LINE
  8
21
 10
43.7642
 20
10.3082
 30
0.0000
 11
42.5958
 21
10.3082
 31
0.0000
  0
LINE
  8
21
 10
42.5958
 20
9.9836
 30
0.0000
 11
42.5958
 21
10.6327
 31
0.0000
  0
ARC
  8
21
 10
46.0446
 20
6.3895
 30
0.0000
 40
0.2596
 50
0.0000
 51
90.0000
  0
ARC
  8
21
 10
45.7557
 20
6.3895
 30
0.0000
 40
0.5485
 50
314.7610
 51
359.9999
  0
ARC
  8
21
 10
45.3954
 20
6.2922
 30
0.0000
 40
0.2596
 50
180.0000
 51
270.0000
  0
ARC
  8
21
 10
45.6226
 20
6.2922
 30
0.0000
 40
0.4868
 50
143.1294
 51
180.0000
  0
ARC
  8
21
 10
45.3954
 20
6.2962
 30
0.0000
 40
0.2637
 50
269.9998
 51
329.4902
  0
ARC
  8
21
 10
46.0446
 20
6.3855
 30
0.0000
 40
0.2637
 50
90.0001
 51
149.4899
  0
LINE
  8
21
 10
45.8174
 20
6.5193
 30
0.0000
 11
45.6226
 21
6.1623
 31
0.0000
  0
LINE
  8
21
 10
45.9796
 20
7.1050
 30
0.0000
 11
45.4604
 21
7.1050
 31
0.0000
  0
ARC
  8
21
 10
45.4604
 20
7.4295
 30
0.0000
 40
0.3246
 50
90.0000
 51
270.0000
  0
LINE
  8
21
 10
45.4604
 20
7.7541
 30
0.0000
 11
45.9796
 21
7.7541
 31
0.0000
  0
ARC
  8
21
 10
45.9796
 20
7.4295
 30
0.0000
 40
0.3246
 50
270.0000
 51
90.0000
  0
LINE
  8
21
 10
45.1358
 20
8.2860
 30
0.0000
 11
45.9796
 21
8.2860
 31
0.0000
  0
ARC
  8
21
 10
45.9796
 20
8.6106
 30
0.0000
 40
0.3246
 50
270.0000
 51
90.0000
  0
LINE
  8
21
 10
45.9796
 20
8.9352
 30
0.0000
 11
45.1358
 21
8.9352
 31
0.0000
  0
LINE
  8
21
 10
46.3042
 20
9.7155
 30
0.0000
 11
45.1358
 21
9.7155
 31
0.0000
  0
LINE
  8
21
 10
45.1358
 20
9.3909
 30
0.0000
 11
45.1358
 21
10.0401
 31
0.0000
  0
LINE
  8
21
 10
46.3042
 20
10.4958
 30
0.0000
 11
45.1358
 21
10.4958
 31
0.0000
  0
LINE
  8
21
 10
45.6551
 20
10.4958
 30
0.0000
 11
45.6551
 21
11.1449
 31
0.0000
  0
LINE
  8
21
 10
45.1358
 20
11.1449
 30
0.0000
 11
46.3042
 21
11.1449
 31
0.0000
  0
LINE
  8
21
 10
48.8442
 20
5.9810
 30
0.0000
 11
47.6758
 21
5.9810
 31
0.0000
  0
LINE
  8
21
 10
47.6758
 20
5.9810
 30
0.0000
 11
48.8442
 21
6.6301
 31
0.0000
  0
LINE
  8
21
 10
48.8442
 20
6.6301
 30
0.0000
 11
47.6758
 21
6.6301
 31
0.0000
  0
LINE
  8
21
 10
48.5196
 20
7.1621
 30
0.0000
 11
48.0004
 21
7.1621
 31
0.0000
  0
ARC
  8
21
 10
48.0004
 20
7.4867
 30
0.0000
 40
0.3246
 50
90.0000
 51
270.0000
  0
LINE
  8
21
 10
48.0004
 20
7.8112
 30
0.0000
 11
48.5196
 21
7.8112
 31
0.0000
  0
ARC
  8
21
 10
48.5196
 20
7.4867
 30
0.0000
 40
0.3246
 50
270.0000
 51
90.0000
  0
LINE
  8
21
 10
48.8442
 20
8.3506
 30
0.0000
 11
47.6758
 21
8.3506
 31
0.0000
  0
LINE
  8
21
 10
47.6758
 20
8.3506
 30
0.0000
 11
47.6758
 21
8.6751
 31
0.0000
  0
ARC
  8
21
 10
48.0004
 20
8.6751
 30
0.0000
 40
0.3246
 50
0.0000
 51
180.0000
  0
LINE
  8
21
 10
48.3249
 20
8.6751
 30
0.0000
 11
48.3249
 21
8.3506
 31
0.0000
  0
LINE
  8
21
 10
48.8442
 20
8.9997
 30
0.0000
 11
48.3249
 21
8.7400
 31
0.0000
  0
LINE
  8
21
 10
48.8442
 20
9.7345
 30
0.0000
 11
47.6758
 21
9.7345
 31
0.0000
  0
LINE
  8
21
 10
47.6758
 20
9.4100
 30
0.0000
 11
47.6758
 21
10.0591
 31
0.0000
  0
LINE
  8
21
 10
48.8442
 20
10.5149
 30
0.0000
 11
47.6758
 21
10.5149
 31
0.0000
  0
LINE
  8
21
 10
48.1951
 20
10.5149
 30
0.0000
 11
48.1951
 21
11.1640
 31
0.0000
  0
LINE
  8
21
 10
47.6758
 20
11.1640
 30
0.0000
 11
48.8442
 21
11.1640
 31
0.0000
  0
ARC
  8
21
 10
27.9400
 20
7.0045
 30
0.0000
 40
1.1116
 50
230.0340
 51
269.9999
  0
ARC
  8
21
 10
27.9400
 20
7.0045
 30
0.0000
 40
1.1116
 50
269.9999
 51
309.9662
  0
LINE
  8
21
 10
28.5242
 20
6.6647
 30
0.0000
 11
27.3558
 21
6.6647
 31
0.0000
  0
LINE
  8
21
 10
27.3558
 20
6.6647
 30
0.0000
 11
27.3558
 21
6.9892
 31
0.0000
  0
ARC
  8
21
 10
27.6804
 20
6.9892
 30
0.0000
 40
0.3246
 50
0.0000
 51
180.0000
  0
LINE
  8
21
 10
28.0049
 20
6.9892
 30
0.0000
 11
28.0049
 21
6.6647
 31
0.0000
  0
LINE
  8
21
 10
28.1996
 20
7.7526
 30
0.0000
 11
27.6804
 21
7.7526
 31
0.0000
  0
ARC
  8
21
 10
27.6804
 20
8.0772
 30
0.0000
 40
0.3246
 50
90.0000
 51
270.0000
  0
LINE
  8
21
 10
27.6804
 20
8.4018
 30
0.0000
 11
28.1996
 21
8.4018
 31
0.0000
  0
ARC
  8
21
 10
28.1996
 20
8.0772
 30
0.0000
 40
0.3246
 50
270.0000
 51
90.0000
  0
LINE
  8
21
 10
28.5242
 20
9.1440
 30
0.0000
 11
27.3558
 21
9.1440
 31
0.0000
  0
LINE
  8
21
 10
27.3558
 20
8.8194
 30
0.0000
 11
27.3558
 21
9.4686
 31
0.0000
  0
LINE
  8
21
 10
28.5242
 20
9.8213
 30
0.0000
 11
27.3558
 21
10.6003
 31
0.0000
  0
LINE
  8
21
 10
27.3558
 20
9.8213
 30
0.0000
 11
28.5242
 21
10.6003
 31
0.0000
  0
ARC
  8
21
 10
27.9400
 20
10.1405
 30
0.0000
 40
1.1116
 50
50.0338
 51
90.0001
  0
ARC
  8
21
 10
27.9400
 20
10.1405
 30
0.0000
 40
1.1116
 50
90.0001
 51
129.9660
  0
ARC
  8
21
 10
33.0200
 20
7.4236
 30
0.0000
 40
1.1116
 50
230.0340
 51
269.9999
  0
ARC
  8
21
 10
33.0200
 20
7.4236
 30
0.0000
 40
1.1116
 50
269.9999
 51
309.9662
  0
LINE
  8
21
 10
33.1498
 20
7.0400
 30
0.0000
 11
33.1498
 21
7.8190
 31
0.0000
  0
LINE
  8
21
 10
33.5393
 20
7.4295
 30
0.0000
 11
32.7604
 21
7.4295
 31
0.0000
  0
LINE
  8
21
 10
33.6042
 20
8.3241
 30
0.0000
 11
33.6042
 21
8.7136
 31
0.0000
  0
ARC
  8
21
 10
33.3446
 20
8.7136
 30
0.0000
 40
0.2596
 50
0.0000
 51
90.0000
  0
LINE
  8
21
 10
33.3446
 20
8.9733
 30
0.0000
 11
33.2147
 21
8.9733
 31
0.0000
  0
ARC
  8
21
 10
33.2147
 20
8.7136
 30
0.0000
 40
0.2596
 50
90.0000
 51
180.0000
  0
LINE
  8
21
 10
32.9551
 20
8.7136
 30
0.0000
 11
32.9551
 21
8.3241
 31
0.0000
  0
LINE
  8
21
 10
32.9551
 20
8.3241
 30
0.0000
 11
32.4358
 21
8.3241
 31
0.0000
  0
LINE
  8
21
 10
32.4358
 20
8.3241
 30
0.0000
 11
32.4358
 21
8.9733
 31
0.0000
  0
LINE
  8
21
 10
32.4358
 20
9.4022
 30
0.0000
 11
33.6042
 21
9.7917
 31
0.0000
  0
LINE
  8
21
 10
33.6042
 20
9.7917
 30
0.0000
 11
32.4358
 21
10.1812
 31
0.0000
  0
ARC
  8
21
 10
33.0200
 20
9.7214
 30
0.0000
 40
1.1116
 50
50.0338
 51
90.0001
  0
ARC
  8
21
 10
33.0200
 20
9.7214
 30
0.0000
 40
1.1116
 50
90.0001
 51
129.9660
  0
ARC
  8
21
 10
38.1000
 20
7.0045
 30
0.0000
 40
1.1116
 50
230.0340
 51
269.9999
  0
ARC
  8
21
 10
38.1000
 20
7.0045
 30
0.0000
 40
1.1116
 50
269.9999
 51
309.9662
  0
LINE
  8
21
 10
38.6842
 20
6.6647
 30
0.0000
 11
37.5158
 21
6.6647
 31
0.0000
  0
LINE
  8
21
 10
37.5158
 20
6.6647
 30
0.0000
 11
37.5158
 21
6.9892
 31
0.0000
  0
ARC
  8
21
 10
37.8404
 20
6.9892
 30
0.0000
 40
0.3246
 50
0.0000
 51
180.0000
  0
LINE
  8
21
 10
38.1649
 20
6.9892
 30
0.0000
 11
38.1649
 21
6.6647
 31
0.0000
  0
LINE
  8
21
 10
38.3596
 20
7.7526
 30
0.0000
 11
37.8404
 21
7.7526
 31
0.0000
  0
ARC
  8
21
 10
37.8404
 20
8.0772
 30
0.0000
 40
0.3246
 50
90.0000
 51
270.0000
  0
LINE
  8
21
 10
37.8404
 20
8.4018
 30
0.0000
 11
38.3596
 21
8.4018
 31
0.0000
  0
ARC
  8
21
 10
38.3596
 20
8.0772
 30
0.0000
 40
0.3246
 50
270.0000
 51
90.0000
  0
LINE
  8
21
 10
38.6842
 20
9.1440
 30
0.0000
 11
37.5158
 21
9.1440
 31
0.0000
  0
LINE
  8
21
 10
37.5158
 20
8.8194
 30
0.0000
 11
37.5158
 21
9.4686
 31
0.0000
  0
LINE
  8
21
 10
37.5158
 20
9.8213
 30
0.0000
 11
38.0675
 21
10.2108
 31
0.0000
  0
LINE
  8
21
 10
38.0675
 20
10.2108
 30
0.0000
 11
37.5158
 21
10.6003
 31
0.0000
  0
LINE
  8
21
 10
38.6842
 20
10.2108
 30
0.0000
 11
38.0675
 21
10.2108
 31
0.0000
  0
ARC
  8
21
 10
38.1000
 20
10.1405
 30
0.0000
 40
1.1116
 50
50.0338
 51
90.0001
  0
ARC
  8
21
 10
38.1000
 20
10.1405
 30
0.0000
 40
1.1116
 50
90.0001
 51
129.9660
  0
ARC
  8
48
 10
3.6953
 20
41.0457
 30
0.0000
 40
0.3612
 50
270.0000
 51
0.0000
  0
ARC
  8
48
 10
3.6953
 20
41.4476
 30
0.0000
 40
0.7631
 50
224.7608
 51
269.9999
  0
ARC
  8
48
 10
3.5598
 20
41.9488
 30
0.0000
 40
0.3612
 50
89.9995
 51
180.0000
  0
ARC
  8
48
 10
3.5598
 20
41.6327
 30
0.0000
 40
0.6773
 50
53.1301
 51
89.9995
  0
ARC
  8
48
 10
3.5655
 20
41.9488
 30
0.0000
 40
0.3669
 50
179.9998
 51
239.4900
  0
ARC
  8
48
 10
3.6897
 20
41.0457
 30
0.0000
 40
0.3669
 50
0.0000
 51
59.4898
  0
LINE
  8
48
 10
3.8759
 20
41.3618
 30
0.0000
 11
3.3792
 21
41.6327
 31
0.0000
  0
LINE
  8
48
 10
4.5985
 20
41.7682
 30
0.0000
 11
4.9597
 21
40.6845
 31
0.0000
  0
LINE
  8
48
 10
4.9597
 20
40.6845
 30
0.0000
 11
5.3210
 21
41.7682
 31
0.0000
  0
LINE
  8
48
 10
6.6236
 20
40.6845
 30
0.0000
 11
6.1720
 21
40.6845
 31
0.0000
  0
ARC
  8
48
 10
6.1720
 20
40.9554
 30
0.0000
 40
0.2709
 50
180.0000
 51
270.0000
  0
LINE
  8
48
 10
5.9011
 20
40.9554
 30
0.0000
 11
5.9011
 21
41.4069
 31
0.0000
  0
ARC
  8
48
 10
6.2623
 20
41.4069
 30
0.0000
 40
0.3612
 50
0.0000
 51
180.0000
  0
LINE
  8
48
 10
6.6236
 20
41.4069
 30
0.0000
 11
6.6236
 21
41.2263
 31
0.0000
  0
LINE
  8
48
 10
6.6236
 20
41.2263
 30
0.0000
 11
5.9011
 21
41.2263
 31
0.0000
  0
LINE
  8
48
 10
7.3079
 20
40.6845
 30
0.0000
 11
7.3079
 21
41.7682
 31
0.0000
  0
LINE
  8
48
 10
7.3079
 20
41.7682
 30
0.0000
 11
7.7594
 21
41.7682
 31
0.0000
  0
ARC
  8
48
 10
7.7594
 20
41.4972
 30
0.0000
 40
0.2709
 50
0.0007
 51
90.0000
  0
LINE
  8
48
 10
8.0304
 20
41.4973
 30
0.0000
 11
8.0304
 21
40.6845
 31
0.0000
  0
LINE
  8
48
 10
9.6355
 20
40.6845
 30
0.0000
 11
9.6355
 21
42.3101
 31
0.0000
  0
LINE
  8
48
 10
9.6355
 20
42.3101
 30
0.0000
 11
10.0870
 21
42.3101
 31
0.0000
  0
ARC
  8
48
 10
10.0870
 20
41.8585
 30
0.0000
 40
0.4516
 50
270.0000
 51
90.0000
  0
LINE
  8
48
 10
10.0870
 20
41.4069
 30
0.0000
 11
9.6355
 21
41.4069
 31
0.0000
  0
LINE
  8
48
 10
11.8340
 20
40.6845
 30
0.0000
 11
11.3824
 21
40.6845
 31
0.0000
  0
ARC
  8
48
 10
11.3824
 20
40.9554
 30
0.0000
 40
0.2709
 50
180.0000
 51
270.0000
  0
LINE
  8
48
 10
11.1115
 20
40.9554
 30
0.0000
 11
11.1115
 21
41.4069
 31
0.0000
  0
ARC
  8
48
 10
11.4727
 20
41.4069
 30
0.0000
 40
0.3612
 50
0.0000
 51
180.0000
  0
LINE
  8
48
 10
11.8340
 20
41.4069
 30
0.0000
 11
11.8340
 21
41.2263
 31
0.0000
  0
LINE
  8
48
 10
11.8340
 20
41.2263
 30
0.0000
 11
11.1115
 21
41.2263
 31
0.0000
  0
LINE
  8
48
 10
12.3365
 20
41.7682
 30
0.0000
 11
12.8783
 21
41.7682
 31
0.0000
  0
LINE
  8
48
 10
12.5171
 20
42.3101
 30
0.0000
 11
12.5171
 21
40.9554
 31
0.0000
  0
ARC
  8
48
 10
12.7880
 20
40.9554
 30
0.0000
 40
0.2709
 50
180.0000
 51
270.0000
  0
LINE
  8
48
 10
12.7880
 20
40.6845
 30
0.0000
 11
12.8783
 21
40.6845
 31
0.0000
  0
LINE
  8
48
 10
14.1786
 20
40.6845
 30
0.0000
 11
13.7271
 21
40.6845
 31
0.0000
  0
ARC
  8
48
 10
13.7271
 20
40.9554
 30
0.0000
 40
0.2709
 50
180.0000
 51
270.0000
  0
LINE
  8
48
 10
13.4562
 20
40.9554
 30
0.0000
 11
13.4562
 21
41.4069
 31
0.0000
  0
ARC
  8
48
 10
13.8174
 20
41.4069
 30
0.0000
 40
0.3612
 50
0.0000
 51
180.0000
  0
LINE
  8
48
 10
14.1786
 20
41.4069
 30
0.0000
 11
14.1786
 21
41.2263
 31
0.0000
  0
LINE
  8
48
 10
14.1786
 20
41.2263
 30
0.0000
 11
13.4562
 21
41.2263
 31
0.0000
  0
LINE
  8
48
 10
14.8715
 20
40.6845
 30
0.0000
 11
14.8715
 21
41.7682
 31
0.0000
  0
LINE
  8
48
 10
14.8715
 20
41.7682
 30
0.0000
 11
15.4133
 21
41.7682
 31
0.0000
  0
LINE
  8
48
 10
15.4133
 20
41.7682
 30
0.0000
 11
15.4133
 21
41.5876
 31
0.0000
  0
LINE
  8
48
 10
16.4921
 20
41.1360
 30
0.0000
 11
16.0405
 21
41.3166
 31
0.0000
  0
ARC
  8
48
 10
16.1275
 20
41.5340
 30
0.0000
 40
0.2342
 50
89.1818
 51
248.1988
  0
ARC
  8
48
 10
16.1162
 20
40.7427
 30
0.0000
 40
1.0256
 50
65.7611
 51
89.1818
  0
ARC
  8
48
 10
16.4051
 20
40.9186
 30
0.0000
 40
0.2342
 50
269.1818
 51
68.1988
  0
ARC
  8
48
 10
16.4236
 20
42.2159
 30
0.0000
 40
1.5316
 50
250.2089
 51
269.1818
  0
LINE
  8
48
 10
17.9822
 20
40.6845
 30
0.0000
 11
17.5307
 21
40.6845
 31
0.0000
  0
ARC
  8
48
 10
17.5307
 20
40.9554
 30
0.0000
 40
0.2709
 50
180.0000
 51
270.0000
  0
LINE
  8
48
 10
17.2598
 20
40.9554
 30
0.0000
 11
17.2598
 21
41.4069
 31
0.0000
  0
ARC
  8
48
 10
17.6210
 20
41.4069
 30
0.0000
 40
0.3612
 50
0.0000
 51
180.0000
  0
LINE
  8
48
 10
17.9822
 20
41.4069
 30
0.0000
 11
17.9822
 21
41.2263
 31
0.0000
  0
LINE
  8
48
 10
17.9822
 20
41.2263
 30
0.0000
 11
17.2598
 21
41.2263
 31
0.0000
  0
LINE
  8
48
 10
18.6666
 20
40.6845
 30
0.0000
 11
18.6666
 21
41.7682
 31
0.0000
  0
LINE
  8
48
 10
18.6666
 20
41.7682
 30
0.0000
 11
19.1181
 21
41.7682
 31
0.0000
  0
ARC
  8
48
 10
19.1181
 20
41.4972
 30
0.0000
 40
0.2709
 50
0.0007
 51
90.0000
  0
LINE
  8
48
 10
19.3891
 20
41.4973
 30
0.0000
 11
19.3891
 21
40.6845
 31
0.0000
  0
ARC
  8
48
 10
8.9717
 20
39.2367
 30
0.0000
 40
0.4064
 50
0.0000
 51
90.0000
  0
ARC
  8
48
 10
8.9717
 20
39.1209
 30
0.0000
 40
0.5221
 50
90.0001
 51
162.0549
  0
ARC
  8
48
 10
8.9416
 20
39.2367
 30
0.0000
 40
0.4365
 50
313.6036
 51
359.9997
  0
LINE
  8
48
 10
9.2427
 20
38.9206
 30
0.0000
 11
8.4750
 21
38.0175
 31
0.0000
  0
LINE
  8
48
 10
8.4750
 20
38.0175
 30
0.0000
 11
9.3781
 21
38.0175
 31
0.0000
  0
ARC
  8
48
 10
11.3778
 20
38.8302
 30
0.0000
 40
1.3396
 50
154.0109
 51
180.0001
  0
ARC
  8
48
 10
10.4897
 20
39.3089
 30
0.0000
 40
0.3342
 50
90.0001
 51
161.0756
  0
ARC
  8
48
 10
10.4897
 20
39.3089
 30
0.0000
 40
0.3342
 50
18.9248
 51
90.0000
  0
ARC
  8
48
 10
9.6016
 20
38.8302
 30
0.0000
 40
1.3396
 50
360.0000
 51
25.9891
  0
ARC
  8
48
 10
11.3778
 20
38.8302
 30
0.0000
 40
1.3396
 50
180.0000
 51
205.9889
  0
ARC
  8
48
 10
10.4897
 20
38.3516
 30
0.0000
 40
0.3342
 50
198.9250
 51
270.0000
  0
ARC
  8
48
 10
9.6016
 20
38.8302
 30
0.0000
 40
1.3396
 50
334.0111
 51
360.0000
  0
ARC
  8
48
 10
10.4897
 20
38.3516
 30
0.0000
 40
0.3342
 50
269.9999
 51
341.0745
  0
LINE
  8
48
 10
10.1284
 20
38.3787
 30
0.0000
 11
10.8509
 21
39.2818
 31
0.0000
  0
LINE
  8
48
 10
11.6013
 20
39.2818
 30
0.0000
 11
12.0528
 21
39.6431
 31
0.0000
  0
LINE
  8
48
 10
12.0528
 20
39.6431
 30
0.0000
 11
12.0528
 21
38.0175
 31
0.0000
  0
LINE
  8
48
 10
11.6013
 20
38.0175
 30
0.0000
 11
12.5044
 21
38.0175
 31
0.0000
  0
LINE
  8
48
 10
14.0675
 20
38.7399
 30
0.0000
 11
13.5256
 21
38.7399
 31
0.0000
  0
ARC
  8
48
 10
13.5256
 20
39.1012
 30
0.0000
 40
0.3612
 50
180.0000
 51
270.0000
  0
LINE
  8
48
 10
13.1644
 20
39.1012
 30
0.0000
 11
13.1644
 21
39.1915
 31
0.0000
  0
ARC
  8
48
 10
13.6159
 20
39.1915
 30
0.0000
 40
0.4516
 50
0.0000
 51
180.0000
  0
LINE
  8
48
 10
14.0675
 20
39.1915
 30
0.0000
 11
14.0675
 21
38.7399
 31
0.0000
  0
ARC
  8
48
 10
13.3450
 20
38.7399
 30
0.0000
 40
0.7225
 50
270.0000
 51
0.0000
  0
LINE
  8
48
 10
28.6512
 20
37.7000
 30
0.0000
 11
29.1028
 21
37.7000
 31
0.0000
  0
ARC
  8
48
 10
29.1028
 20
38.1515
 30
0.0000
 40
0.4516
 50
270.0000
 51
90.0000
  0
LINE
  8
48
 10
28.6512
 20
39.3255
 30
0.0000
 11
29.1931
 21
39.3255
 31
0.0000
  0
ARC
  8
48
 10
29.1931
 20
38.9643
 30
0.0000
 40
0.3612
 50
270.0000
 51
90.0000
  0
LINE
  8
48
 10
29.1931
 20
38.6031
 30
0.0000
 11
28.8318
 21
38.6031
 31
0.0000
  0
LINE
  8
48
 10
30.2143
 20
37.7000
 30
0.0000
 11
30.7562
 21
37.7000
 31
0.0000
  0
ARC
  8
48
 10
30.7562
 20
38.0612
 30
0.0000
 40
0.3612
 50
270.0000
 51
0.0000
  0
LINE
  8
48
 10
31.1174
 20
38.0612
 30
0.0000
 11
31.1174
 21
38.2418
 31
0.0000
  0
ARC
  8
48
 10
30.7562
 20
38.2418
 30
0.0000
 40
0.3612
 50
0.0000
 51
90.0000
  0
LINE
  8
48
 10
30.7562
 20
38.6031
 30
0.0000
 11
30.2143
 21
38.6031
 31
0.0000
  0
LINE
  8
48
 10
30.2143
 20
38.6031
 30
0.0000
 11
30.2143
 21
39.3255
 31
0.0000
  0
LINE
  8
48
 10
30.2143
 20
39.3255
 30
0.0000
 11
31.1174
 21
39.3255
 31
0.0000
  0
LINE
  8
48
 10
31.8669
 20
37.1581
 30
0.0000
 11
31.8669
 21
38.7837
 31
0.0000
  0
LINE
  8
48
 10
32.5893
 20
38.7837
 30
0.0000
 11
32.5893
 21
38.0612
 31
0.0000
  0
ARC
  8
48
 10
32.2281
 20
38.0612
 30
0.0000
 40
0.3612
 50
180.0000
 51
0.0000
  0
LINE
  8
48
 10
32.5893
 20
38.0612
 30
0.0000
 11
32.5893
 21
37.8806
 31
0.0000
  0
ARC
  8
48
 10
32.7700
 20
37.8806
 30
0.0000
 40
0.1806
 50
180.0000
 51
270.0000
  0
LINE
  8
48
 10
33.3545
 20
37.7000
 30
0.0000
 11
33.3545
 21
38.7837
 31
0.0000
  0
LINE
  8
48
 10
33.3545
 20
38.7837
 30
0.0000
 11
34.1673
 21
38.7837
 31
0.0000
  0
ARC
  8
48
 10
34.1673
 20
38.5128
 30
0.0000
 40
0.2709
 50
0.0000
 51
90.0000
  0
LINE
  8
48
 10
34.4382
 20
38.5128
 30
0.0000
 11
34.4382
 21
37.7000
 31
0.0000
  0
LINE
  8
48
 10
33.8963
 20
37.7000
 30
0.0000
 11
33.8963
 21
38.7837
 31
0.0000
  0
ARC
  8
48
 10
52.4842
 20
38.9192
 30
0.0000
 40
0.4064
 50
0.0000
 51
90.0000
  0
ARC
  8
48
 10
52.4842
 20
38.8034
 30
0.0000
 40
0.5221
 50
90.0001
 51
162.0549
  0
ARC
  8
48
 10
52.4540
 20
38.9192
 30
0.0000
 40
0.4365
 50
313.6036
 51
359.9997
  0
LINE
  8
48
 10
52.7551
 20
38.6031
 30
0.0000
 11
51.9875
 21
37.7000
 31
0.0000
  0
LINE
  8
48
 10
51.9875
 20
37.7000
 30
0.0000
 11
52.8906
 21
37.7000
 31
0.0000
  0
ARC
  8
48
 10
53.3271
 20
32.1628
 30
0.0000
 40
1.3396
 50
154.0109
 51
180.0001
  0
ARC
  8
48
 10
52.4390
 20
32.6414
 30
0.0000
 40
0.3342
 50
90.0001
 51
161.0756
  0
ARC
  8
48
 10
52.4390
 20
32.6414
 30
0.0000
 40
0.3342
 50
18.9248
 51
90.0000
  0
ARC
  8
48
 10
51.5509
 20
32.1628
 30
0.0000
 40
1.3396
 50
360.0000
 51
25.9891
  0
ARC
  8
48
 10
53.3271
 20
32.1628
 30
0.0000
 40
1.3396
 50
180.0000
 51
205.9889
  0
ARC
  8
48
 10
52.4390
 20
31.6841
 30
0.0000
 40
0.3342
 50
198.9250
 51
270.0000
  0
ARC
  8
48
 10
51.5509
 20
32.1628
 30
0.0000
 40
1.3396
 50
334.0111
 51
360.0000
  0
ARC
  8
48
 10
52.4390
 20
31.6841
 30
0.0000
 40
0.3342
 50
269.9999
 51
341.0745
  0
LINE
  8
48
 10
52.0778
 20
31.7112
 30
0.0000
 11
52.8003
 21
32.6143
 31
0.0000
  0
LINE
  8
48
 10
35.4775
 20
42.1393
 30
0.0000
 11
35.9290
 21
42.5006
 31
0.0000
  0
LINE
  8
48
 10
35.9290
 20
42.5006
 30
0.0000
 11
35.9290
 21
40.8750
 31
0.0000
  0
LINE
  8
48
 10
35.4775
 20
40.8750
 30
0.0000
 11
36.3806
 21
40.8750
 31
0.0000
  0
LINE
  8
48
 10
37.0406
 20
40.8750
 30
0.0000
 11
37.4921
 21
40.8750
 31
0.0000
  0
ARC
  8
48
 10
37.4921
 20
41.3265
 30
0.0000
 40
0.4516
 50
270.0000
 51
90.0000
  0
LINE
  8
48
 10
37.0406
 20
42.5006
 30
0.0000
 11
37.5824
 21
42.5006
 31
0.0000
  0
ARC
  8
48
 10
37.5824
 20
42.1393
 30
0.0000
 40
0.3612
 50
270.0000
 51
90.0000
  0
LINE
  8
48
 10
37.5824
 20
41.7781
 30
0.0000
 11
37.2212
 21
41.7781
 31
0.0000
  0
LINE
  8
48
 10
39.5068
 20
41.5974
 30
0.0000
 11
38.9649
 21
41.5974
 31
0.0000
  0
ARC
  8
48
 10
38.9649
 20
41.9587
 30
0.0000
 40
0.3612
 50
180.0000
 51
270.0000
  0
LINE
  8
48
 10
38.6037
 20
41.9587
 30
0.0000
 11
38.6037
 21
42.0490
 31
0.0000
  0
ARC
  8
48
 10
39.0552
 20
42.0490
 30
0.0000
 40
0.4516
 50
0.0000
 51
180.0000
  0
LINE
  8
48
 10
39.5068
 20
42.0490
 30
0.0000
 11
39.5068
 21
41.5974
 31
0.0000
  0
ARC
  8
48
 10
38.7843
 20
41.5974
 30
0.0000
 40
0.7225
 50
270.0000
 51
0.0000
  0
LINE
  8
48
 10
40.1807
 20
41.5071
 30
0.0000
 11
41.2644
 21
41.5071
 31
0.0000
  0
ARC
  8
48
 10
42.4351
 20
42.0941
 30
0.0000
 40
0.4064
 50
0.0000
 51
90.0000
  0
ARC
  8
48
 10
42.4351
 20
41.9784
 30
0.0000
 40
0.5221
 50
90.0001
 51
162.0549
  0
ARC
  8
48
 10
42.4049
 20
42.0942
 30
0.0000
 40
0.4365
 50
313.6036
 51
359.9997
  0
LINE
  8
48
 10
42.7060
 20
41.7781
 30
0.0000
 11
41.9384
 21
40.8750
 31
0.0000
  0
LINE
  8
48
 10
41.9384
 20
40.8750
 30
0.0000
 11
42.8415
 21
40.8750
 31
0.0000
  0
LINE
  8
48
 10
43.5154
 20
41.5071
 30
0.0000
 11
44.5991
 21
41.5071
 31
0.0000
  0
ARC
  8
48
 10
46.6126
 20
41.6878
 30
0.0000
 40
1.3396
 50
154.0109
 51
180.0001
  0
ARC
  8
48
 10
45.7246
 20
42.1664
 30
0.0000
 40
0.3342
 50
90.0001
 51
161.0756
  0
ARC
  8
48
 10
45.7246
 20
42.1664
 30
0.0000
 40
0.3342
 50
18.9248
 51
90.0000
  0
ARC
  8
48
 10
44.8365
 20
41.6878
 30
0.0000
 40
1.3396
 50
360.0000
 51
25.9891
  0
ARC
  8
48
 10
46.6126
 20
41.6878
 30
0.0000
 40
1.3396
 50
180.0000
 51
205.9889
  0
ARC
  8
48
 10
45.7246
 20
41.2091
 30
0.0000
 40
0.3342
 50
198.9250
 51
270.0000
  0
ARC
  8
48
 10
44.8365
 20
41.6878
 30
0.0000
 40
1.3396
 50
334.0111
 51
360.0000
  0
ARC
  8
48
 10
45.7246
 20
41.2091
 30
0.0000
 40
0.3342
 50
269.9999
 51
341.0745
  0
LINE
  8
48
 10
45.3633
 20
41.2362
 30
0.0000
 11
46.0858
 21
42.1393
 31
0.0000
  0
LINE
  8
48
 10
46.8361
 20
42.1393
 30
0.0000
 11
47.2877
 21
42.5006
 31
0.0000
  0
LINE
  8
48
 10
47.2877
 20
42.5006
 30
0.0000
 11
47.2877
 21
40.8750
 31
0.0000
  0
LINE
  8
48
 10
46.8361
 20
40.8750
 30
0.0000
 11
47.7392
 21
40.8750
 31
0.0000
  0
LINE
  8
48
 10
48.4132
 20
41.5071
 30
0.0000
 11
49.4969
 21
41.5071
 31
0.0000
  0
ARC
  8
48
 10
51.5104
 20
41.6878
 30
0.0000
 40
1.3396
 50
154.0109
 51
180.0001
  0
ARC
  8
48
 10
50.6223
 20
42.1664
 30
0.0000
 40
0.3342
 50
90.0001
 51
161.0756
  0
ARC
  8
48
 10
50.6223
 20
42.1664
 30
0.0000
 40
0.3342
 50
18.9248
 51
90.0000
  0
ARC
  8
48
 10
49.7343
 20
41.6878
 30
0.0000
 40
1.3396
 50
360.0000
 51
25.9891
  0
ARC
  8
48
 10
51.5104
 20
41.6878
 30
0.0000
 40
1.3396
 50
180.0000
 51
205.9889
  0
ARC
  8
48
 10
50.6223
 20
41.2091
 30
0.0000
 40
0.3342
 50
198.9250
 51
270.0000
  0
ARC
  8
48
 10
49.7343
 20
41.6878
 30
0.0000
 40
1.3396
 50
334.0111
 51
360.0000
  0
ARC
  8
48
 10
50.6223
 20
41.2091
 30
0.0000
 40
0.3342
 50
269.9999
 51
341.0745
  0
LINE
  8
48
 10
50.2611
 20
41.2362
 30
0.0000
 11
50.9836
 21
42.1393
 31
0.0000
  0
ARC
  8
48
 10
53.0735
 20
41.6878
 30
0.0000
 40
1.3396
 50
154.0109
 51
180.0001
  0
ARC
  8
48
 10
52.1855
 20
42.1664
 30
0.0000
 40
0.3342
 50
90.0001
 51
161.0756
  0
ARC
  8
48
 10
52.1855
 20
42.1664
 30
0.0000
 40
0.3342
 50
18.9248
 51
90.0000
  0
ARC
  8
48
 10
51.2974
 20
41.6878
 30
0.0000
 40
1.3396
 50
360.0000
 51
25.9891
  0
ARC
  8
48
 10
53.0736
 20
41.6878
 30
0.0000
 40
1.3396
 50
180.0000
 51
205.9889
  0
ARC
  8
48
 10
52.1855
 20
41.2091
 30
0.0000
 40
0.3342
 50
198.9250
 51
270.0000
  0
ARC
  8
48
 10
51.2974
 20
41.6878
 30
0.0000
 40
1.3396
 50
334.0111
 51
360.0000
  0
ARC
  8
48
 10
52.1855
 20
41.2091
 30
0.0000
 40
0.3342
 50
269.9999
 51
341.0745
  0
LINE
  8
48
 10
51.8242
 20
41.2362
 30
0.0000
 11
52.5467
 21
42.1393
 31
0.0000
  0
POINT
  8
23
 10
3.0000
 20
8.0000
 30
0.0000
  0
CIRCLE
  8
21
 10
3.0000
 20
8.0000
 30
0.0000
 40
3.1789
  0
CIRCLE
  8
21
 10
3.0000
 20
8.0000
 30
0.0000
 40
1.7463
  0
POINT
  8
23
 10
73.0000
 20
8.0000
 30
0.0000
  0
CIRCLE
  8
21
 10
73.0000
 20
8.0000
 30
0.0000
 40
3.1789
  0
CIRCLE
  8
21
 10
73.0000
 20
8.0000
 30
0.0000
 40
1.7463
  0
POINT
  8
23
 10
38.0000
 20
13.0000
 30
0.0000
  0
LINE
  8
21
 10
33.5550
 20
11.7300
 30
0.0000
 11
32.2850
 21
11.7300
 31
0.0000
  0
LINE
  8
21
 10
32.2850
 20
11.7300
 30
0.0000
 11
31.6500
 21
12.3650
 31
0.0000
  0
LINE
  8
21
 10
31.6500
 20
12.3650
 30
0.0000
 11
31.6500
 21
13.6350
 31
0.0000
  0
LINE
  8
21
 10
31.6500
 20
13.6350
 30
0.0000
 11
32.2850
 21
14.2700
 31
0.0000
  0
LINE
  8
21
 10
31.6500
 20
12.3650
 30
0.0000
 11
31.0150
 21
11.7300
 31
0.0000
  0
LINE
  8
21
 10
31.0150
 20
11.7300
 30
0.0000
 11
29.7450
 21
11.7300
 31
0.0000
  0
LINE
  8
21
 10
29.7450
 20
11.7300
 30
0.0000
 11
29.1100
 21
12.3650
 31
0.0000
  0
LINE
  8
21
 10
29.1100
 20
12.3650
 30
0.0000
 11
29.1100
 21
13.6350
 31
0.0000
  0
LINE
  8
21
 10
29.1100
 20
13.6350
 30
0.0000
 11
29.7450
 21
14.2700
 31
0.0000
  0
LINE
  8
21
 10
29.7450
 20
14.2700
 30
0.0000
 11
31.0150
 21
14.2700
 31
0.0000
  0
LINE
  8
21
 10
31.0150
 20
14.2700
 30
0.0000
 11
31.6500
 21
13.6350
 31
0.0000
  0
LINE
  8
21
 10
36.7300
 20
12.3650
 30
0.0000
 11
36.0950
 21
11.7300
 31
0.0000
  0
LINE
  8
21
 10
36.0950
 20
11.7300
 30
0.0000
 11
34.8250
 21
11.7300
 31
0.0000
  0
LINE
  8
21
 10
34.8250
 20
11.7300
 30
0.0000
 11
34.1900
 21
12.3650
 31
0.0000
  0
LINE
  8
21
 10
34.1900
 20
12.3650
 30
0.0000
 11
34.1900
 21
13.6350
 31
0.0000
  0
LINE
  8
21
 10
34.1900
 20
13.6350
 30
0.0000
 11
34.8250
 21
14.2700
 31
0.0000
  0
LINE
  8
21
 10
34.8250
 20
14.2700
 30
0.0000
 11
36.0950
 21
14.2700
 31
0.0000
  0
LINE
  8
21
 10
36.0950
 20
14.2700
 30
0.0000
 11
36.7300
 21
13.6350
 31
0.0000
  0
LINE
  8
21
 10
33.5550
 20
11.7300
 30
0.0000
 11
34.1900
 21
12.3650
 31
0.0000
  0
LINE
  8
21
 10
34.1900
 20
13.6350
 30
0.0000
 11
33.5550
 21
14.2700
 31
0.0000
  0
LINE
  8
21
 10
32.2850
 20
14.2700
 30
0.0000
 11
33.5550
 21
14.2700
 31
0.0000
  0
LINE
  8
21
 10
41.1750
 20
11.7300
 30
0.0000
 11
39.9050
 21
11.7300
 31
0.0000
  0
LINE
  8
21
 10
39.9050
 20
11.7300
 30
0.0000
 11
39.2700
 21
12.3650
 31
0.0000
  0
LINE
  8
21
 10
39.2700
 20
12.3650
 30
0.0000
 11
39.2700
 21
13.6350
 31
0.0000
  0
LINE
  8
21
 10
39.2700
 20
13.6350
 30
0.0000
 11
39.9050
 21
14.2700
 31
0.0000
  0
LINE
  8
21
 10
39.2700
 20
12.3650
 30
0.0000
 11
38.6350
 21
11.7300
 31
0.0000
  0
LINE
  8
21
 10
38.6350
 20
11.7300
 30
0.0000
 11
37.3650
 21
11.7300
 31
0.0000
  0
LINE
  8
21
 10
37.3650
 20
11.7300
 30
0.0000
 11
36.7300
 21
12.3650
 31
0.0000
  0
LINE
  8
21
 10
36.7300
 20
12.3650
 30
0.0000
 11
36.7300
 21
13.6350
 31
0.0000
  0
LINE
  8
21
 10
36.7300
 20
13.6350
 30
0.0000
 11
37.3650
 21
14.2700
 31
0.0000
  0
LINE
  8
21
 10
37.3650
 20
14.2700
 30
0.0000
 11
38.6350
 21
14.2700
 31
0.0000
  0
LINE
  8
21
 10
38.6350
 20
14.2700
 30
0.0000
 11
39.2700
 21
13.6350
 31
0.0000
  0
LINE
  8
21
 10
44.3500
 20
12.3650
 30
0.0000
 11
43.7150
 21
11.7300
 31
0.0000
  0
LINE
  8
21
 10
43.7150
 20
11.7300
 30
0.0000
 11
42.4450
 21
11.7300
 31
0.0000
  0
LINE
  8
21
 10
42.4450
 20
11.7300
 30
0.0000
 11
41.8100
 21
12.3650
 31
0.0000
  0
LINE
  8
21
 10
41.8100
 20
12.3650
 30
0.0000
 11
41.8100
 21
13.6350
 31
0.0000
  0
LINE
  8
21
 10
41.8100
 20
13.6350
 30
0.0000
 11
42.4450
 21
14.2700
 31
0.0000
  0
LINE
  8
21
 10
42.4450
 20
14.2700
 30
0.0000
 11
43.7150
 21
14.2700
 31
0.0000
  0
LINE
  8
21
 10
43.7150
 20
14.2700
 30
0.0000
 11
44.3500
 21
13.6350
 31
0.0000
  0
LINE
  8
21
 10
41.1750
 20
11.7300
 30
0.0000
 11
41.8100
 21
12.3650
 31
0.0000
  0
LINE
  8
21
 10
41.8100
 20
13.6350
 30
0.0000
 11
41.1750
 21
14.2700
 31
0.0000
  0
LINE
  8
21
 10
39.9050
 20
14.2700
 30
0.0000
 11
41.1750
 21
14.2700
 31
0.0000
  0
LINE
  8
21
 10
48.7950
 20
11.7300
 30
0.0000
 11
47.5250
 21
11.7300
 31
0.0000
  0
LINE
  8
21
 10
47.5250
 20
11.7300
 30
0.0000
 11
46.8900
 21
12.3650
 31
0.0000
  0
LINE
  8
21
 10
46.8900
 20
12.3650
 30
0.0000
 11
46.8900
 21
13.6350
 31
0.0000
  0
LINE
  8
21
 10
46.8900
 20
13.6350
 30
0.0000
 11
47.5250
 21
14.2700
 31
0.0000
  0
LINE
  8
21
 10
46.8900
 20
12.3650
 30
0.0000
 11
46.2550
 21
11.7300
 31
0.0000
  0
LINE
  8
21
 10
46.2550
 20
11.7300
 30
0.0000
 11
44.9850
 21
11.7300
 31
0.0000
  0
LINE
  8
21
 10
44.9850
 20
11.7300
 30
0.0000
 11
44.3500
 21
12.3650
 31
0.0000
  0
LINE
  8
21
 10
44.3500
 20
12.3650
 30
0.0000
 11
44.3500
 21
13.6350
 31
0.0000
  0
LINE
  8
21
 10
44.3500
 20
13.6350
 30
0.0000
 11
44.9850
 21
14.2700
 31
0.0000
  0
LINE
  8
21
 10
44.9850
 20
14.2700
 30
0.0000
 11
46.2550
 21
14.2700
 31
0.0000
  0
LINE
  8
21
 10
46.2550
 20
14.2700
 30
0.0000
 11
46.8900
 21
13.6350
 31
0.0000
  0
LINE
  8
21
 10
49.4300
 20
12.3650
 30
0.0000
 11
49.4300
 21
13.6350
 31
0.0000
  0
LINE
  8
21
 10
48.7950
 20
11.7300
 30
0.0000
 11
49.4300
 21
12.3650
 31
0.0000
  0
LINE
  8
21
 10
49.4300
 20
13.6350
 30
0.0000
 11
49.4300
 21
14.2700
 31
0.0000
  0
LINE
  8
21
 10
49.4300
 20
14.2700
 30
0.0000
 11
48.7950
 21
14.2700
 31
0.0000
  0
LINE
  8
21
 10
47.5250
 20
14.2700
 30
0.0000
 11
48.7950
 21
14.2700
 31
0.0000
  0
LINE
  8
21
 10
28.4750
 20
11.7300
 30
0.0000
 11
27.2050
 21
11.7300
 31
0.0000
  0
LINE
  8
21
 10
27.2050
 20
11.7300
 30
0.0000
 11
26.5700
 21
12.3650
 31
0.0000
  0
LINE
  8
21
 10
26.5700
 20
12.3650
 30
0.0000
 11
26.5700
 21
13.6350
 31
0.0000
  0
LINE
  8
21
 10
26.5700
 20
13.6350
 30
0.0000
 11
27.2050
 21
14.2700
 31
0.0000
  0
LINE
  8
21
 10
28.4750
 20
11.7300
 30
0.0000
 11
29.1100
 21
12.3650
 31
0.0000
  0
LINE
  8
21
 10
29.1100
 20
13.6350
 30
0.0000
 11
28.4750
 21
14.2700
 31
0.0000
  0
LINE
  8
21
 10
27.2050
 20
14.2700
 30
0.0000
 11
28.4750
 21
14.2700
 31
0.0000
  0
INSERT
  8
51
  2
RECT
 10
30.3800
 20
13.0000
 30
0.0000
 41
0.5080
 42
0.5080
 43
1.0000
 50
180.0000
  0
INSERT
  8
51
  2
RECT
 10
32.9200
 20
13.0000
 30
0.0000
 41
0.5080
 42
0.5080
 43
1.0000
 50
180.0000
  0
INSERT
  8
51
  2
RECT
 10
35.4600
 20
13.0000
 30
0.0000
 41
0.5080
 42
0.5080
 43
1.0000
 50
180.0000
  0
INSERT
  8
51
  2
RECT
 10
38.0000
 20
13.0000
 30
0.0000
 41
0.5080
 42
0.5080
 43
1.0000
 50
180.0000
  0
INSERT
  8
51
  2
RECT
 10
40.5400
 20
13.0000
 30
0.0000
 41
0.5080
 42
0.5080
 43
1.0000
 50
180.0000
  0
INSERT
  8
51
  2
RECT
 10
43.0800
 20
13.0000
 30
0.0000
 41
0.5080
 42
0.5080
 43
1.0000
 50
180.0000
  0
INSERT
  8
51
  2
RECT
 10
45.6200
 20
13.0000
 30
0.0000
 41
0.5080
 42
0.5080
 43
1.0000
 50
180.0000
  0
INSERT
  8
51
  2
RECT
 10
48.1600
 20
13.0000
 30
0.0000
 41
0.5080
 42
0.5080
 43
1.0000
 50
180.0000
  0
INSERT
  8
51
  2
RECT
 10
27.8400
 20
13.0000
 30
0.0000
 41
0.5080
 42
0.5080
 43
1.0000
 50
180.0000
  0
LINE
  8
25
 10
37.7178
 20
15.6530
 30
0.0000
 11
37.7178
 21
14.7442
 31
0.0000
  0
ARC
  8
25
 10
37.4582
 20
14.7442
 30
0.0000
 40
0.2596
 50
270.0000
 51
0.0000
  0
LINE
  8
25
 10
37.4582
 20
14.4846
 30
0.0000
 11
37.3284
 21
14.4846
 31
0.0000
  0
LINE
  8
25
 10
38.2452
 20
15.3934
 30
0.0000
 11
38.5697
 21
15.6530
 31
0.0000
  0
LINE
  8
25
 10
38.5697
 20
15.6530
 30
0.0000
 11
38.5697
 21
14.4846
 31
0.0000
  0
LINE
  8
25
 10
38.2452
 20
14.4846
 30
0.0000
 11
38.8943
 21
14.4846
 31
0.0000
  0
POINT
  8
23
 10
54.0000
 20
8.0000
 30
0.0000
  0
LINE
  8
21
 10
52.0950
 20
13.0800
 30
0.0000
 11
51.4600
 21
13.0800
 31
0.0000
  0
LINE
  8
21
 10
51.4600
 20
11.1750
 30
0.0000
 11
52.0950
 21
10.5400
 31
0.0000
  0
LINE
  8
21
 10
52.0950
 20
10.5400
 30
0.0000
 11
51.4600
 21
9.9050
 31
0.0000
  0
LINE
  8
21
 10
51.4600
 20
8.6350
 30
0.0000
 11
52.0950
 21
8.0000
 31
0.0000
  0
LINE
  8
21
 10
52.0950
 20
8.0000
 30
0.0000
 11
51.4600
 21
7.3650
 31
0.0000
  0
LINE
  8
21
 10
51.4600
 20
6.0950
 30
0.0000
 11
52.0950
 21
5.4600
 31
0.0000
  0
LINE
  8
21
 10
52.0950
 20
13.0800
 30
0.0000
 11
55.9050
 21
13.0800
 31
0.0000
  0
LINE
  8
21
 10
55.9050
 20
13.0800
 30
0.0000
 11
56.5400
 21
12.4450
 31
0.0000
  0
LINE
  8
21
 10
56.5400
 20
12.4450
 30
0.0000
 11
56.5400
 21
11.1750
 31
0.0000
  0
LINE
  8
21
 10
56.5400
 20
11.1750
 30
0.0000
 11
55.9050
 21
10.5400
 31
0.0000
  0
LINE
  8
21
 10
55.9050
 20
10.5400
 30
0.0000
 11
56.5400
 21
9.9050
 31
0.0000
  0
LINE
  8
21
 10
56.5400
 20
9.9050
 30
0.0000
 11
56.5400
 21
8.6350
 31
0.0000
  0
LINE
  8
21
 10
56.5400
 20
8.6350
 30
0.0000
 11
55.9050
 21
8.0000
 31
0.0000
  0
LINE
  8
21
 10
55.9050
 20
8.0000
 30
0.0000
 11
56.5400
 21
7.3650
 31
0.0000
  0
LINE
  8
21
 10
56.5400
 20
7.3650
 30
0.0000
 11
56.5400
 21
6.0950
 31
0.0000
  0
LINE
  8
21
 10
56.5400
 20
6.0950
 30
0.0000
 11
55.9050
 21
5.4600
 31
0.0000
  0
LINE
  8
21
 10
55.9050
 20
10.5400
 30
0.0000
 11
52.0950
 21
10.5400
 31
0.0000
  0
LINE
  8
21
 10
55.9050
 20
8.0000
 30
0.0000
 11
52.0950
 21
8.0000
 31
0.0000
  0
LINE
  8
21
 10
55.9050
 20
5.4600
 30
0.0000
 11
52.0950
 21
5.4600
 31
0.0000
  0
LINE
  8
21
 10
51.4600
 20
7.3650
 30
0.0000
 11
51.4600
 21
6.0950
 31
0.0000
  0
LINE
  8
21
 10
51.4600
 20
9.9050
 30
0.0000
 11
51.4600
 21
8.6350
 31
0.0000
  0
LINE
  8
21
 10
51.4600
 20
13.0800
 30
0.0000
 11
51.4600
 21
11.1750
 31
0.0000
  0
LINE
  8
21
 10
52.0950
 20
5.4600
 30
0.0000
 11
51.4600
 21
4.8250
 31
0.0000
  0
LINE
  8
21
 10
51.4600
 20
3.5550
 30
0.0000
 11
52.0950
 21
2.9200
 31
0.0000
  0
LINE
  8
21
 10
55.9050
 20
5.4600
 30
0.0000
 11
56.5400
 21
4.8250
 31
0.0000
  0
LINE
  8
21
 10
56.5400
 20
4.8250
 30
0.0000
 11
56.5400
 21
3.5550
 31
0.0000
  0
LINE
  8
21
 10
56.5400
 20
3.5550
 30
0.0000
 11
55.9050
 21
2.9200
 31
0.0000
  0
LINE
  8
21
 10
55.9050
 20
2.9200
 30
0.0000
 11
52.0950
 21
2.9200
 31
0.0000
  0
LINE
  8
21
 10
51.4600
 20
4.8250
 30
0.0000
 11
51.4600
 21
3.5550
 31
0.0000
  0
INSERT
  8
51
  2
RECT
 10
52.7300
 20
11.8100
 30
0.0000
 41
0.5080
 42
0.5080
 43
1.0000
 50
270.0000
  0
INSERT
  8
51
  2
RECT
 10
55.2700
 20
11.8100
 30
0.0000
 41
0.5080
 42
0.5080
 43
1.0000
 50
270.0000
  0
INSERT
  8
51
  2
RECT
 10
55.2700
 20
9.2700
 30
0.0000
 41
0.5080
 42
0.5080
 43
1.0000
 50
270.0000
  0
INSERT
  8
51
  2
RECT
 10
52.7300
 20
9.2700
 30
0.0000
 41
0.5080
 42
0.5080
 43
1.0000
 50
270.0000
  0
INSERT
  8
51
  2
RECT
 10
55.2700
 20
6.7300
 30
0.0000
 41
0.5080
 42
0.5080
 43
1.0000
 50
270.0000
  0
INSERT
  8
51
  2
RECT
 10
52.7300
 20
6.7300
 30
0.0000
 41
0.5080
 42
0.5080
 43
1.0000
 50
270.0000
  0
INSERT
  8
51
  2
RECT
 10
55.2700
 20
4.1900
 30
0.0000
 41
0.5080
 42
0.5080
 43
1.0000
 50
270.0000
  0
INSERT
  8
51
  2
RECT
 10
52.7300
 20
4.1900
 30
0.0000
 41
0.5080
 42
0.5080
 43
1.0000
 50
270.0000
  0
LINE
  8
25
 10
54.1703
 20
14.3942
 30
0.0000
 11
54.1703
 21
13.4854
 31
0.0000
  0
ARC
  8
25
 10
53.9106
 20
13.4854
 30
0.0000
 40
0.2596
 50
270.0000
 51
0.0000
  0
LINE
  8
25
 10
53.9106
 20
13.2258
 30
0.0000
 11
53.7808
 21
13.2258
 31
0.0000
  0
ARC
  8
25
 10
55.0546
 20
14.1021
 30
0.0000
 40
0.2921
 50
0.0000
 51
90.0000
  0
ARC
  8
25
 10
55.0546
 20
14.0189
 30
0.0000
 40
0.3753
 50
90.0001
 51
162.0549
  0
ARC
  8
25
 10
55.0330
 20
14.1021
 30
0.0000
 40
0.3138
 50
313.6040
 51
359.9996
  0
LINE
  8
25
 10
55.2493
 20
13.8749
 30
0.0000
 11
54.6976
 21
13.2258
 31
0.0000
  0
LINE
  8
25
 10
54.6976
 20
13.2258
 30
0.0000
 11
55.3467
 21
13.2258
 31
0.0000
  0
POINT
  8
23
 10
22.0000
 20
8.0000
 30
0.0000
  0
LINE
  8
21
 10
23.9050
 20
5.4600
 30
0.0000
 11
24.5400
 21
5.4600
 31
0.0000
  0
LINE
  8
21
 10
24.5400
 20
7.3650
 30
0.0000
 11
23.9050
 21
8.0000
 31
0.0000
  0
LINE
  8
21
 10
23.9050
 20
8.0000
 30
0.0000
 11
24.5400
 21
8.6350
 31
0.0000
  0
LINE
  8
21
 10
24.5400
 20
9.9050
 30
0.0000
 11
23.9050
 21
10.5400
 31
0.0000
  0
LINE
  8
21
 10
23.9050
 20
5.4600
 30
0.0000
 11
20.0950
 21
5.4600
 31
0.0000
  0
LINE
  8
21
 10
20.0950
 20
5.4600
 30
0.0000
 11
19.4600
 21
6.0950
 31
0.0000
  0
LINE
  8
21
 10
19.4600
 20
6.0950
 30
0.0000
 11
19.4600
 21
7.3650
 31
0.0000
  0
LINE
  8
21
 10
19.4600
 20
7.3650
 30
0.0000
 11
20.0950
 21
8.0000
 31
0.0000
  0
LINE
  8
21
 10
20.0950
 20
8.0000
 30
0.0000
 11
19.4600
 21
8.6350
 31
0.0000
  0
LINE
  8
21
 10
19.4600
 20
8.6350
 30
0.0000
 11
19.4600
 21
9.9050
 31
0.0000
  0
LINE
  8
21
 10
19.4600
 20
9.9050
 30
0.0000
 11
20.0950
 21
10.5400
 31
0.0000
  0
LINE
  8
21
 10
20.0950
 20
8.0000
 30
0.0000
 11
23.9050
 21
8.0000
 31
0.0000
  0
LINE
  8
21
 10
20.0950
 20
10.5400
 30
0.0000
 11
23.9050
 21
10.5400
 31
0.0000
  0
LINE
  8
21
 10
24.5400
 20
8.6350
 30
0.0000
 11
24.5400
 21
9.9050
 31
0.0000
  0
LINE
  8
21
 10
24.5400
 20
5.4600
 30
0.0000
 11
24.5400
 21
7.3650
 31
0.0000
  0
INSERT
  8
51
  2
RECT
 10
23.2700
 20
6.7300
 30
0.0000
 41
0.5080
 42
0.5080
 43
1.0000
 50
90.0000
  0
INSERT
  8
51
  2
RECT
 10
20.7300
 20
6.7300
 30
0.0000
 41
0.5080
 42
0.5080
 43
1.0000
 50
90.0000
  0
INSERT
  8
51
  2
RECT
 10
20.7300
 20
9.2700
 30
0.0000
 41
0.5080
 42
0.5080
 43
1.0000
 50
90.0000
  0
INSERT
  8
51
  2
RECT
 10
23.2700
 20
9.2700
 30
0.0000
 41
0.5080
 42
0.5080
 43
1.0000
 50
90.0000
  0
LINE
  8
25
 10
22.1703
 20
12.3942
 30
0.0000
 11
22.1703
 21
11.4854
 31
0.0000
  0
ARC
  8
25
 10
21.9106
 20
11.4854
 30
0.0000
 40
0.2596
 50
270.0000
 51
0.0000
  0
LINE
  8
25
 10
21.9106
 20
11.2258
 30
0.0000
 11
21.7808
 21
11.2258
 31
0.0000
  0
LINE
  8
25
 10
22.6976
 20
11.2258
 30
0.0000
 11
23.0222
 21
11.2258
 31
0.0000
  0
ARC
  8
25
 10
23.0222
 20
11.5504
 30
0.0000
 40
0.3246
 50
270.0000
 51
90.0000
  0
LINE
  8
25
 10
22.6976
 20
12.3942
 30
0.0000
 11
23.0871
 21
12.3942
 31
0.0000
  0
ARC
  8
25
 10
23.0871
 20
12.1346
 30
0.0000
 40
0.2596
 50
270.0000
 51
90.0000
  0
LINE
  8
25
 10
23.0871
 20
11.8749
 30
0.0000
 11
22.8274
 21
11.8749
 31
0.0000
  0
POINT
  8
23
 10
38.0000
 20
4.0000
 30
0.0000
  0
LINE
  8
51
 10
48.6680
 20
5.0160
 30
0.0000
 11
48.6680
 21
2.9840
 31
0.0000
  0
LINE
  8
51
 10
48.6680
 20
2.9840
 30
0.0000
 11
47.6520
 21
2.9840
 31
0.0000
  0
LINE
  8
51
 10
47.6520
 20
2.9840
 30
0.0000
 11
47.6520
 21
5.0160
 31
0.0000
  0
LINE
  8
51
 10
47.6520
 20
5.0160
 30
0.0000
 11
48.6680
 21
5.0160
 31
0.0000
  0
LINE
  8
51
 10
46.1280
 20
5.0160
 30
0.0000
 11
46.1280
 21
2.9840
 31
0.0000
  0
LINE
  8
51
 10
46.1280
 20
2.9840
 30
0.0000
 11
45.1120
 21
2.9840
 31
0.0000
  0
LINE
  8
51
 10
45.1120
 20
2.9840
 30
0.0000
 11
45.1120
 21
5.0160
 31
0.0000
  0
LINE
  8
51
 10
45.1120
 20
5.0160
 30
0.0000
 11
46.1280
 21
5.0160
 31
0.0000
  0
LINE
  8
51
 10
43.5880
 20
5.0160
 30
0.0000
 11
43.5880
 21
2.9840
 31
0.0000
  0
LINE
  8
51
 10
43.5880
 20
2.9840
 30
0.0000
 11
42.5720
 21
2.9840
 31
0.0000
  0
LINE
  8
51
 10
42.5720
 20
2.9840
 30
0.0000
 11
42.5720
 21
5.0160
 31
0.0000
  0
LINE
  8
51
 10
42.5720
 20
5.0160
 30
0.0000
 11
43.5880
 21
5.0160
 31
0.0000
  0
LINE
  8
51
 10
41.0480
 20
5.0160
 30
0.0000
 11
41.0480
 21
2.9840
 31
0.0000
  0
LINE
  8
51
 10
41.0480
 20
2.9840
 30
0.0000
 11
40.0320
 21
2.9840
 31
0.0000
  0
LINE
  8
51
 10
40.0320
 20
2.9840
 30
0.0000
 11
40.0320
 21
5.0160
 31
0.0000
  0
LINE
  8
51
 10
40.0320
 20
5.0160
 30
0.0000
 11
41.0480
 21
5.0160
 31
0.0000
  0
LINE
  8
51
 10
38.5080
 20
5.0160
 30
0.0000
 11
38.5080
 21
2.9840
 31
0.0000
  0
LINE
  8
51
 10
38.5080
 20
2.9840
 30
0.0000
 11
37.4920
 21
2.9840
 31
0.0000
  0
LINE
  8
51
 10
37.4920
 20
2.9840
 30
0.0000
 11
37.4920
 21
5.0160
 31
0.0000
  0
LINE
  8
51
 10
37.4920
 20
5.0160
 30
0.0000
 11
38.5080
 21
5.0160
 31
0.0000
  0
LINE
  8
51
 10
35.9680
 20
5.0160
 30
0.0000
 11
35.9680
 21
2.9840
 31
0.0000
  0
LINE
  8
51
 10
35.9680
 20
2.9840
 30
0.0000
 11
34.9520
 21
2.9840
 31
0.0000
  0
LINE
  8
51
 10
34.9520
 20
2.9840
 30
0.0000
 11
34.9520
 21
5.0160
 31
0.0000
  0
LINE
  8
51
 10
34.9520
 20
5.0160
 30
0.0000
 11
35.9680
 21
5.0160
 31
0.0000
  0
LINE
  8
51
 10
33.4280
 20
5.0160
 30
0.0000
 11
33.4280
 21
2.9840
 31
0.0000
  0
LINE
  8
51
 10
33.4280
 20
2.9840
 30
0.0000
 11
32.4120
 21
2.9840
 31
0.0000
  0
LINE
  8
51
 10
32.4120
 20
2.9840
 30
0.0000
 11
32.4120
 21
5.0160
 31
0.0000
  0
LINE
  8
51
 10
32.4120
 20
5.0160
 30
0.0000
 11
33.4280
 21
5.0160
 31
0.0000
  0
LINE
  8
51
 10
30.8880
 20
5.0160
 30
0.0000
 11
30.8880
 21
2.9840
 31
0.0000
  0
LINE
  8
51
 10
30.8880
 20
2.9840
 30
0.0000
 11
29.8720
 21
2.9840
 31
0.0000
  0
LINE
  8
51
 10
29.8720
 20
2.9840
 30
0.0000
 11
29.8720
 21
5.0160
 31
0.0000
  0
LINE
  8
51
 10
29.8720
 20
5.0160
 30
0.0000
 11
30.8880
 21
5.0160
 31
0.0000
  0
LINE
  8
51
 10
28.3480
 20
5.0160
 30
0.0000
 11
28.3480
 21
2.9840
 31
0.0000
  0
LINE
  8
51
 10
28.3480
 20
2.9840
 30
0.0000
 11
27.3320
 21
2.9840
 31
0.0000
  0
LINE
  8
51
 10
27.3320
 20
2.9840
 30
0.0000
 11
27.3320
 21
5.0160
 31
0.0000
  0
LINE
  8
51
 10
27.3320
 20
5.0160
 30
0.0000
 11
28.3480
 21
5.0160
 31
0.0000
  0
CIRCLE
  8
21
 10
49.4300
 20
4.0000
 30
0.0000
 40
0.6350
  0
LINE
  8
25
 10
26.2006
 20
4.4362
 30
0.0000
 11
26.2006
 21
3.7052
 31
0.0000
  0
ARC
  8
25
 10
25.9918
 20
3.7052
 30
0.0000
 40
0.2088
 50
270.0000
 51
0.0000
  0
LINE
  8
25
 10
25.9918
 20
3.4964
 30
0.0000
 11
25.8874
 21
3.4964
 31
0.0000
  0
LINE
  8
25
 10
26.8286
 20
4.4362
 30
0.0000
 11
26.6198
 21
3.7052
 31
0.0000
  0
LINE
  8
25
 10
26.6198
 20
3.7052
 30
0.0000
 11
27.1419
 21
3.7052
 31
0.0000
  0
LINE
  8
25
 10
26.9853
 20
3.9140
 30
0.0000
 11
26.9853
 21
3.4964
 31
0.0000
  0
POINT
  8
23
 10
0.0000
 20
27.4638
 30
0.0000
  0
LINE
  8
48
 10
54.6100
 20
27.4638
 30
0.0000
 11
54.6100
 21
30.6388
 31
0.0000
  0
LINE
  8
48
 10
54.6100
 20
30.6388
 30
0.0000
 11
54.6100
 21
33.8137
 31
0.0000
  0
LINE
  8
48
 10
54.6100
 20
33.8137
 30
0.0000
 11
54.6100
 21
36.9888
 31
0.0000
  0
LINE
  8
48
 10
54.6100
 20
36.9888
 30
0.0000
 11
54.6100
 21
40.1638
 31
0.0000
  0
LINE
  8
48
 10
54.6100
 20
40.1638
 30
0.0000
 11
54.6100
 21
43.3388
 31
0.0000
  0
LINE
  8
48
 10
54.6100
 20
43.3388
 30
0.0000
 11
22.8600
 21
43.3388
 31
0.0000
  0
LINE
  8
48
 10
22.8600
 20
43.3388
 30
0.0000
 11
0.0000
 21
43.3388
 31
0.0000
  0
LINE
  8
48
 10
0.0000
 20
43.3388
 30
0.0000
 11
0.0000
 21
36.9888
 31
0.0000
  0
LINE
  8
48
 10
0.0000
 20
36.9888
 30
0.0000
 11
0.0000
 21
33.8137
 31
0.0000
  0
LINE
  8
48
 10
0.0000
 20
33.8137
 30
0.0000
 11
0.0000
 21
30.6388
 31
0.0000
  0
LINE
  8
48
 10
0.0000
 20
30.6388
 30
0.0000
 11
0.0000
 21
27.4638
 31
0.0000
  0
LINE
  8
48
 10
0.0000
 20
27.4638
 30
0.0000
 11
54.6100
 21
27.4638
 31
0.0000
  0
LINE
  8
48
 10
0.0000
 20
30.6388
 30
0.0000
 11
36.8300
 21
30.6388
 31
0.0000
  0
LINE
  8
48
 10
36.8300
 20
30.6388
 30
0.0000
 11
54.6100
 21
30.6388
 31
0.0000
  0
LINE
  8
48
 10
0.0000
 20
33.8137
 30
0.0000
 11
36.8300
 21
33.8137
 31
0.0000
  0
LINE
  8
48
 10
36.8300
 20
33.8137
 30
0.0000
 11
54.6100
 21
33.8137
 31
0.0000
  0
LINE
  8
48
 10
0.0000
 20
36.9888
 30
0.0000
 11
22.8600
 21
36.9888
 31
0.0000
  0
LINE
  8
48
 10
22.8600
 20
36.9888
 30
0.0000
 11
36.8300
 21
36.9888
 31
0.0000
  0
LINE
  8
48
 10
36.8300
 20
36.9888
 30
0.0000
 11
54.6100
 21
36.9888
 31
0.0000
  0
LINE
  8
48
 10
22.8600
 20
43.3388
 30
0.0000
 11
22.8600
 21
40.1638
 31
0.0000
  0
LINE
  8
48
 10
22.8600
 20
40.1638
 30
0.0000
 11
22.8600
 21
36.9888
 31
0.0000
  0
LINE
  8
48
 10
22.8600
 20
40.1638
 30
0.0000
 11
36.8300
 21
40.1638
 31
0.0000
  0
LINE
  8
48
 10
36.8300
 20
40.1638
 30
0.0000
 11
54.6100
 21
40.1638
 31
0.0000
  0
LINE
  8
48
 10
36.8300
 20
40.1638
 30
0.0000
 11
36.8300
 21
36.9888
 31
0.0000
  0
LINE
  8
48
 10
36.8300
 20
33.8137
 30
0.0000
 11
36.8300
 21
30.6388
 31
0.0000
  0
LINE
  8
21
 10
1.3589
 20
28.3739
 30
0.0000
 11
1.3589
 21
29.7201
 31
0.0000
  0
LINE
  8
21
 10
1.3589
 20
29.7201
 30
0.0000
 11
1.7328
 21
29.7201
 31
0.0000
  0
ARC
  8
21
 10
1.7328
 20
29.4958
 30
0.0000
 40
0.2244
 50
0.0000
 51
90.0000
  0
LINE
  8
21
 10
1.9572
 20
29.4958
 30
0.0000
 11
1.9572
 21
29.0470
 31
0.0000
  0
ARC
  8
21
 10
1.7328
 20
29.0470
 30
0.0000
 40
0.2244
 50
270.0008
 51
0.0000
  0
LINE
  8
21
 10
1.7328
 20
28.8227
 30
0.0000
 11
1.3589
 21
28.8227
 31
0.0000
  0
LINE
  8
21
 10
2.5485
 20
30.1689
 30
0.0000
 11
2.5485
 21
29.0470
 31
0.0000
  0
ARC
  8
21
 10
2.7729
 20
29.0470
 30
0.0000
 40
0.2244
 50
180.0000
 51
270.0000
  0
LINE
  8
21
 10
3.8564
 20
29.3462
 30
0.0000
 11
3.5199
 21
29.3462
 31
0.0000
  0
ARC
  8
21
 10
3.5199
 20
29.0844
 30
0.0000
 40
0.2618
 50
90.0000
 51
270.0000
  0
LINE
  8
21
 10
3.5199
 20
28.8227
 30
0.0000
 11
3.8564
 21
28.8227
 31
0.0000
  0
LINE
  8
21
 10
3.8564
 20
28.8227
 30
0.0000
 11
3.8564
 21
29.4958
 31
0.0000
  0
ARC
  8
21
 10
3.6320
 20
29.4958
 30
0.0000
 40
0.2244
 50
0.0000
 51
90.0000
  0
LINE
  8
21
 10
3.6320
 20
29.7201
 30
0.0000
 11
3.3329
 21
29.7201
 31
0.0000
  0
LINE
  8
21
 10
5.0241
 20
28.8227
 30
0.0000
 11
4.7250
 21
28.8227
 31
0.0000
  0
ARC
  8
21
 10
4.7250
 20
29.0470
 30
0.0000
 40
0.2244
 50
180.0000
 51
270.0000
  0
LINE
  8
21
 10
4.5006
 20
29.0470
 30
0.0000
 11
4.5006
 21
29.4958
 31
0.0000
  0
ARC
  8
21
 10
4.7250
 20
29.4958
 30
0.0000
 40
0.2244
 50
89.9992
 51
180.0000
  0
LINE
  8
21
 10
4.7250
 20
29.7201
 30
0.0000
 11
5.0241
 21
29.7201
 31
0.0000
  0
LINE
  8
21
 10
6.1464
 20
28.8227
 30
0.0000
 11
5.7725
 21
28.8227
 31
0.0000
  0
ARC
  8
21
 10
5.7725
 20
29.0470
 30
0.0000
 40
0.2244
 50
180.0000
 51
270.0000
  0
LINE
  8
21
 10
5.5481
 20
29.0470
 30
0.0000
 11
5.5481
 21
29.4210
 31
0.0000
  0
ARC
  8
21
 10
5.8473
 20
29.4210
 30
0.0000
 40
0.2992
 50
0.0000
 51
180.0000
  0
LINE
  8
21
 10
6.1464
 20
29.4210
 30
0.0000
 11
6.1464
 21
29.2714
 31
0.0000
  0
LINE
  8
21
 10
6.1464
 20
29.2714
 30
0.0000
 11
5.5481
 21
29.2714
 31
0.0000
  0
LINE
  8
21
 10
6.8130
 20
28.8227
 30
0.0000
 11
6.8130
 21
29.7201
 31
0.0000
  0
LINE
  8
21
 10
6.8130
 20
29.7201
 30
0.0000
 11
7.4861
 21
29.7201
 31
0.0000
  0
ARC
  8
21
 10
7.4861
 20
29.4958
 30
0.0000
 40
0.2244
 50
0.0000
 51
90.0000
  0
LINE
  8
21
 10
7.7105
 20
29.4958
 30
0.0000
 11
7.7105
 21
28.8227
 31
0.0000
  0
LINE
  8
21
 10
7.2617
 20
28.8227
 30
0.0000
 11
7.2617
 21
29.7201
 31
0.0000
  0
LINE
  8
21
 10
8.9754
 20
28.8227
 30
0.0000
 11
8.6014
 21
28.8227
 31
0.0000
  0
ARC
  8
21
 10
8.6014
 20
29.0470
 30
0.0000
 40
0.2244
 50
180.0000
 51
270.0000
  0
LINE
  8
21
 10
8.3771
 20
29.0470
 30
0.0000
 11
8.3771
 21
29.4210
 31
0.0000
  0
ARC
  8
21
 10
8.6762
 20
29.4210
 30
0.0000
 40
0.2992
 50
0.0000
 51
180.0000
  0
LINE
  8
21
 10
8.9754
 20
29.4210
 30
0.0000
 11
8.9754
 21
29.2714
 31
0.0000
  0
LINE
  8
21
 10
8.9754
 20
29.2714
 30
0.0000
 11
8.3771
 21
29.2714
 31
0.0000
  0
LINE
  8
21
 10
9.6090
 20
28.8227
 30
0.0000
 11
9.6090
 21
29.7201
 31
0.0000
  0
LINE
  8
21
 10
9.6090
 20
29.7201
 30
0.0000
 11
9.9830
 21
29.7201
 31
0.0000
  0
ARC
  8
21
 10
9.9830
 20
29.4958
 30
0.0000
 40
0.2244
 50
0.0000
 51
90.0000
  0
LINE
  8
21
 10
10.2074
 20
29.4958
 30
0.0000
 11
10.2074
 21
28.8227
 31
0.0000
  0
LINE
  8
21
 10
10.7198
 20
29.7201
 30
0.0000
 11
11.1685
 21
29.7201
 31
0.0000
  0
LINE
  8
21
 10
10.8694
 20
30.1689
 30
0.0000
 11
10.8694
 21
29.0470
 31
0.0000
  0
ARC
  8
21
 10
11.0937
 20
29.0470
 30
0.0000
 40
0.2244
 50
180.0000
 51
270.0000
  0
LINE
  8
21
 10
11.0937
 20
28.8227
 30
0.0000
 11
11.1685
 21
28.8227
 31
0.0000
  0
LINE
  8
21
 10
12.9635
 20
28.8227
 30
0.0000
 11
12.6643
 21
28.8227
 31
0.0000
  0
ARC
  8
21
 10
12.6643
 20
29.0470
 30
0.0000
 40
0.2244
 50
180.0000
 51
270.0000
  0
LINE
  8
21
 10
12.4400
 20
29.0470
 30
0.0000
 11
12.4400
 21
29.4958
 31
0.0000
  0
ARC
  8
21
 10
12.6643
 20
29.4958
 30
0.0000
 40
0.2244
 50
89.9992
 51
180.0000
  0
LINE
  8
21
 10
12.6643
 20
29.7201
 30
0.0000
 11
12.9635
 21
29.7201
 31
0.0000
  0
LINE
  8
21
 10
13.4875
 20
29.1218
 30
0.0000
 11
13.4875
 21
29.4210
 31
0.0000
  0
ARC
  8
21
 10
13.7866
 20
29.4210
 30
0.0000
 40
0.2992
 50
0.0000
 51
180.0000
  0
LINE
  8
21
 10
14.0858
 20
29.4210
 30
0.0000
 11
14.0858
 21
29.1218
 31
0.0000
  0
ARC
  8
21
 10
13.7866
 20
29.1218
 30
0.0000
 40
0.2992
 50
180.0000
 51
0.0000
  0
LINE
  8
21
 10
14.7524
 20
28.8227
 30
0.0000
 11
14.7524
 21
29.7201
 31
0.0000
  0
LINE
  8
21
 10
14.7524
 20
29.7201
 30
0.0000
 11
15.4255
 21
29.7201
 31
0.0000
  0
ARC
  8
21
 10
15.4255
 20
29.4958
 30
0.0000
 40
0.2244
 50
0.0000
 51
90.0000
  0
LINE
  8
21
 10
15.6498
 20
29.4958
 30
0.0000
 11
15.6498
 21
28.8227
 31
0.0000
  0
LINE
  8
21
 10
15.2011
 20
28.8227
 30
0.0000
 11
15.2011
 21
29.7201
 31
0.0000
  0
LINE
  8
21
 10
16.3706
 20
28.3739
 30
0.0000
 11
16.3706
 21
29.7201
 31
0.0000
  0
LINE
  8
21
 10
16.3706
 20
29.7201
 30
0.0000
 11
16.7446
 21
29.7201
 31
0.0000
  0
ARC
  8
21
 10
16.7446
 20
29.4958
 30
0.0000
 40
0.2244
 50
0.0000
 51
90.0000
  0
LINE
  8
21
 10
16.9690
 20
29.4958
 30
0.0000
 11
16.9690
 21
29.0470
 31
0.0000
  0
ARC
  8
21
 10
16.7446
 20
29.0470
 30
0.0000
 40
0.2244
 50
270.0008
 51
0.0000
  0
LINE
  8
21
 10
16.7446
 20
28.8227
 30
0.0000
 11
16.3706
 21
28.8227
 31
0.0000
  0
LINE
  8
21
 10
17.5484
 20
29.1218
 30
0.0000
 11
17.5484
 21
29.4210
 31
0.0000
  0
ARC
  8
21
 10
17.8475
 20
29.4210
 30
0.0000
 40
0.2992
 50
0.0000
 51
180.0000
  0
LINE
  8
21
 10
18.1467
 20
29.4210
 30
0.0000
 11
18.1467
 21
29.1218
 31
0.0000
  0
ARC
  8
21
 10
17.8475
 20
29.1218
 30
0.0000
 40
0.2992
 50
180.0000
 51
0.0000
  0
LINE
  8
21
 10
18.7804
 20
28.8227
 30
0.0000
 11
18.7804
 21
29.7201
 31
0.0000
  0
LINE
  8
21
 10
18.7804
 20
29.7201
 30
0.0000
 11
19.1543
 21
29.7201
 31
0.0000
  0
ARC
  8
21
 10
19.1543
 20
29.4958
 30
0.0000
 40
0.2244
 50
0.0000
 51
90.0000
  0
LINE
  8
21
 10
19.3787
 20
29.4958
 30
0.0000
 11
19.3787
 21
28.8227
 31
0.0000
  0
LINE
  8
21
 10
20.6106
 20
28.8227
 30
0.0000
 11
20.2367
 21
28.8227
 31
0.0000
  0
ARC
  8
21
 10
20.2367
 20
29.0470
 30
0.0000
 40
0.2244
 50
180.0000
 51
270.0000
  0
LINE
  8
21
 10
20.0123
 20
29.0470
 30
0.0000
 11
20.0123
 21
29.4210
 31
0.0000
  0
ARC
  8
21
 10
20.3115
 20
29.4210
 30
0.0000
 40
0.2992
 50
0.0000
 51
180.0000
  0
LINE
  8
21
 10
20.6106
 20
29.4210
 30
0.0000
 11
20.6106
 21
29.2714
 31
0.0000
  0
LINE
  8
21
 10
20.6106
 20
29.2714
 30
0.0000
 11
20.0123
 21
29.2714
 31
0.0000
  0
LINE
  8
21
 10
21.2443
 20
28.8227
 30
0.0000
 11
21.2443
 21
29.7201
 31
0.0000
  0
LINE
  8
21
 10
21.2443
 20
29.7201
 30
0.0000
 11
21.6182
 21
29.7201
 31
0.0000
  0
ARC
  8
21
 10
21.6182
 20
29.4958
 30
0.0000
 40
0.2244
 50
0.0000
 51
90.0000
  0
LINE
  8
21
 10
21.8426
 20
29.4958
 30
0.0000
 11
21.8426
 21
28.8227
 31
0.0000
  0
LINE
  8
21
 10
22.3550
 20
29.7201
 30
0.0000
 11
22.8038
 21
29.7201
 31
0.0000
  0
LINE
  8
21
 10
22.5046
 20
30.1689
 30
0.0000
 11
22.5046
 21
29.0470
 31
0.0000
  0
ARC
  8
21
 10
22.7290
 20
29.0470
 30
0.0000
 40
0.2244
 50
180.0000
 51
270.0000
  0
LINE
  8
21
 10
22.7290
 20
28.8227
 30
0.0000
 11
22.8038
 21
28.8227
 31
0.0000
  0
LINE
  8
21
 10
24.5594
 20
29.1966
 30
0.0000
 11
24.1854
 21
29.3462
 31
0.0000
  0
ARC
  8
21
 10
24.2574
 20
29.5262
 30
0.0000
 40
0.1939
 50
89.1810
 51
248.1986
  0
ARC
  8
21
 10
24.2481
 20
28.8709
 30
0.0000
 40
0.8493
 50
65.7609
 51
89.1810
  0
ARC
  8
21
 10
24.4874
 20
29.0165
 30
0.0000
 40
0.1939
 50
269.1810
 51
68.1986
  0
ARC
  8
21
 10
24.5027
 20
30.0910
 30
0.0000
 40
1.2684
 50
250.2096
 51
269.1810
  0
LINE
  8
21
 10
25.2393
 20
28.8227
 30
0.0000
 11
25.2393
 21
29.7201
 31
0.0000
  0
LINE
  8
21
 10
25.2019
 20
30.0941
 30
0.0000
 11
25.2019
 21
30.1689
 31
0.0000
  0
LINE
  8
21
 10
25.2019
 20
30.1689
 30
0.0000
 11
25.2767
 21
30.1689
 31
0.0000
  0
LINE
  8
21
 10
25.2767
 20
30.1689
 30
0.0000
 11
25.2767
 21
30.0941
 31
0.0000
  0
LINE
  8
21
 10
25.2767
 20
30.0941
 30
0.0000
 11
25.2019
 21
30.0941
 31
0.0000
  0
LINE
  8
21
 10
26.3968
 20
30.1689
 30
0.0000
 11
26.3968
 21
28.8227
 31
0.0000
  0
LINE
  8
21
 10
26.3968
 20
28.8227
 30
0.0000
 11
26.0229
 21
28.8227
 31
0.0000
  0
ARC
  8
21
 10
26.0229
 20
29.0470
 30
0.0000
 40
0.2244
 50
180.0000
 51
270.0000
  0
LINE
  8
21
 10
25.7985
 20
29.0470
 30
0.0000
 11
25.7985
 21
29.4958
 31
0.0000
  0
ARC
  8
21
 10
26.0229
 20
29.4958
 30
0.0000
 40
0.2244
 50
89.9992
 51
180.0000
  0
LINE
  8
21
 10
26.0229
 20
29.7201
 30
0.0000
 11
26.3968
 21
29.7201
 31
0.0000
  0
LINE
  8
21
 10
27.6374
 20
28.8227
 30
0.0000
 11
27.2635
 21
28.8227
 31
0.0000
  0
ARC
  8
21
 10
27.2635
 20
29.0470
 30
0.0000
 40
0.2244
 50
180.0000
 51
270.0000
  0
LINE
  8
21
 10
27.0391
 20
29.0470
 30
0.0000
 11
27.0391
 21
29.4210
 31
0.0000
  0
ARC
  8
21
 10
27.3382
 20
29.4210
 30
0.0000
 40
0.2992
 50
0.0000
 51
180.0000
  0
LINE
  8
21
 10
27.6374
 20
29.4210
 30
0.0000
 11
27.6374
 21
29.2714
 31
0.0000
  0
LINE
  8
21
 10
27.6374
 20
29.2714
 30
0.0000
 11
27.0391
 21
29.2714
 31
0.0000
  0
LINE
  8
22
 10
52.9336
 20
28.3739
 30
0.0000
 11
52.9336
 21
29.7201
 31
0.0000
  0
LINE
  8
22
 10
52.9336
 20
29.7201
 30
0.0000
 11
52.5597
 21
29.7201
 31
0.0000
  0
ARC
  8
22
 10
52.5597
 20
29.4957
 30
0.0000
 40
0.2244
 50
90.0000
 51
179.9992
  0
LINE
  8
22
 10
52.3353
 20
29.4958
 30
0.0000
 11
52.3353
 21
29.0470
 31
0.0000
  0
ARC
  8
22
 10
52.5597
 20
29.0470
 30
0.0000
 40
0.2244
 50
180.0000
 51
270.0000
  0
LINE
  8
22
 10
52.5597
 20
28.8227
 30
0.0000
 11
52.9336
 21
28.8227
 31
0.0000
  0
LINE
  8
22
 10
51.7440
 20
30.1689
 30
0.0000
 11
51.7440
 21
29.0470
 31
0.0000
  0
ARC
  8
22
 10
51.5196
 20
29.0470
 30
0.0000
 40
0.2244
 50
270.0008
 51
0.0000
  0
LINE
  8
22
 10
50.4361
 20
29.3462
 30
0.0000
 11
50.7726
 21
29.3462
 31
0.0000
  0
ARC
  8
22
 10
50.7726
 20
29.0844
 30
0.0000
 40
0.2618
 50
270.0000
 51
90.0000
  0
LINE
  8
22
 10
50.7726
 20
28.8227
 30
0.0000
 11
50.4361
 21
28.8227
 31
0.0000
  0
LINE
  8
22
 10
50.4361
 20
28.8227
 30
0.0000
 11
50.4361
 21
29.4958
 31
0.0000
  0
ARC
  8
22
 10
50.6605
 20
29.4958
 30
0.0000
 40
0.2244
 50
89.9992
 51
180.0000
  0
LINE
  8
22
 10
50.6605
 20
29.7201
 30
0.0000
 11
50.9596
 21
29.7201
 31
0.0000
  0
LINE
  8
22
 10
49.2684
 20
28.8227
 30
0.0000
 11
49.5675
 21
28.8227
 31
0.0000
  0
ARC
  8
22
 10
49.5675
 20
29.0470
 30
0.0000
 40
0.2244
 50
270.0000
 51
0.0008
  0
LINE
  8
22
 10
49.7919
 20
29.0470
 30
0.0000
 11
49.7919
 21
29.4958
 31
0.0000
  0
ARC
  8
22
 10
49.5675
 20
29.4958
 30
0.0000
 40
0.2244
 50
0.0000
 51
90.0000
  0
LINE
  8
22
 10
49.5675
 20
29.7201
 30
0.0000
 11
49.2684
 21
29.7201
 31
0.0000
  0
LINE
  8
22
 10
48.1461
 20
28.8227
 30
0.0000
 11
48.5200
 21
28.8227
 31
0.0000
  0
ARC
  8
22
 10
48.5200
 20
29.0470
 30
0.0000
 40
0.2244
 50
270.0000
 51
0.0008
  0
LINE
  8
22
 10
48.7444
 20
29.0470
 30
0.0000
 11
48.7444
 21
29.4210
 31
0.0000
  0
ARC
  8
22
 10
48.4452
 20
29.4210
 30
0.0000
 40
0.2992
 50
0.0000
 51
180.0000
  0
LINE
  8
22
 10
48.1461
 20
29.4210
 30
0.0000
 11
48.1461
 21
29.2714
 31
0.0000
  0
LINE
  8
22
 10
48.1461
 20
29.2714
 30
0.0000
 11
48.7444
 21
29.2714
 31
0.0000
  0
LINE
  8
22
 10
47.4795
 20
28.8227
 30
0.0000
 11
47.4795
 21
29.7201
 31
0.0000
  0
LINE
  8
22
 10
47.4795
 20
29.7201
 30
0.0000
 11
46.8064
 21
29.7201
 31
0.0000
  0
ARC
  8
22
 10
46.8064
 20
29.4957
 30
0.0000
 40
0.2244
 50
90.0000
 51
179.9992
  0
LINE
  8
22
 10
46.5820
 20
29.4958
 30
0.0000
 11
46.5820
 21
28.8227
 31
0.0000
  0
LINE
  8
22
 10
47.0308
 20
28.8227
 30
0.0000
 11
47.0308
 21
29.7201
 31
0.0000
  0
LINE
  8
22
 10
45.3171
 20
28.8227
 30
0.0000
 11
45.6911
 21
28.8227
 31
0.0000
  0
ARC
  8
22
 10
45.6911
 20
29.0470
 30
0.0000
 40
0.2244
 50
270.0000
 51
0.0008
  0
LINE
  8
22
 10
45.9154
 20
29.0470
 30
0.0000
 11
45.9154
 21
29.4210
 31
0.0000
  0
ARC
  8
22
 10
45.6163
 20
29.4210
 30
0.0000
 40
0.2992
 50
0.0000
 51
180.0000
  0
LINE
  8
22
 10
45.3171
 20
29.4210
 30
0.0000
 11
45.3171
 21
29.2714
 31
0.0000
  0
LINE
  8
22
 10
45.3171
 20
29.2714
 30
0.0000
 11
45.9154
 21
29.2714
 31
0.0000
  0
LINE
  8
22
 10
44.6835
 20
28.8227
 30
0.0000
 11
44.6835
 21
29.7201
 31
0.0000
  0
LINE
  8
22
 10
44.6835
 20
29.7201
 30
0.0000
 11
44.3095
 21
29.7201
 31
0.0000
  0
ARC
  8
22
 10
44.3095
 20
29.4957
 30
0.0000
 40
0.2244
 50
90.0000
 51
179.9992
  0
LINE
  8
22
 10
44.0851
 20
29.4958
 30
0.0000
 11
44.0851
 21
28.8227
 31
0.0000
  0
LINE
  8
22
 10
43.5727
 20
29.7201
 30
0.0000
 11
43.1240
 21
29.7201
 31
0.0000
  0
LINE
  8
22
 10
43.4231
 20
30.1689
 30
0.0000
 11
43.4231
 21
29.0470
 31
0.0000
  0
ARC
  8
22
 10
43.1988
 20
29.0470
 30
0.0000
 40
0.2244
 50
269.9992
 51
360.0000
  0
LINE
  8
22
 10
43.1988
 20
28.8227
 30
0.0000
 11
43.1240
 21
28.8227
 31
0.0000
  0
LINE
  8
22
 10
41.3684
 20
29.1966
 30
0.0000
 11
41.7423
 21
29.3462
 31
0.0000
  0
ARC
  8
22
 10
41.6703
 20
29.5262
 30
0.0000
 40
0.1939
 50
291.8014
 51
90.8190
  0
ARC
  8
22
 10
41.6797
 20
28.8709
 30
0.0000
 40
0.8493
 50
90.8190
 51
114.2391
  0
ARC
  8
22
 10
41.4404
 20
29.0165
 30
0.0000
 40
0.1939
 50
111.8014
 51
270.8190
  0
ARC
  8
22
 10
41.4250
 20
30.0910
 30
0.0000
 40
1.2684
 50
270.8190
 51
289.7904
  0
LINE
  8
22
 10
40.6682
 20
29.1218
 30
0.0000
 11
40.6682
 21
29.4210
 31
0.0000
  0
ARC
  8
22
 10
40.3690
 20
29.4210
 30
0.0000
 40
0.2992
 50
0.0000
 51
180.0000
  0
LINE
  8
22
 10
40.0699
 20
29.4210
 30
0.0000
 11
40.0699
 21
29.1218
 31
0.0000
  0
ARC
  8
22
 10
40.3690
 20
29.1218
 30
0.0000
 40
0.2992
 50
180.0000
 51
0.0000
  0
LINE
  8
22
 10
39.4699
 20
30.1689
 30
0.0000
 11
39.4699
 21
29.0470
 31
0.0000
  0
ARC
  8
22
 10
39.2456
 20
29.0470
 30
0.0000
 40
0.2244
 50
270.0008
 51
0.0000
  0
LINE
  8
22
 10
38.1621
 20
30.1689
 30
0.0000
 11
38.1621
 21
28.8227
 31
0.0000
  0
LINE
  8
22
 10
38.1621
 20
28.8227
 30
0.0000
 11
38.5360
 21
28.8227
 31
0.0000
  0
ARC
  8
22
 10
38.5360
 20
29.0470
 30
0.0000
 40
0.2244
 50
270.0000
 51
0.0008
  0
LINE
  8
22
 10
38.7604
 20
29.0470
 30
0.0000
 11
38.7604
 21
29.4958
 31
0.0000
  0
ARC
  8
22
 10
38.5360
 20
29.4958
 30
0.0000
 40
0.2244
 50
0.0000
 51
90.0000
  0
LINE
  8
22
 10
38.5360
 20
29.7201
 30
0.0000
 11
38.1621
 21
29.7201
 31
0.0000
  0
LINE
  8
22
 10
36.9215
 20
28.8227
 30
0.0000
 11
37.2954
 21
28.8227
 31
0.0000
  0
ARC
  8
22
 10
37.2954
 20
29.0470
 30
0.0000
 40
0.2244
 50
270.0000
 51
0.0008
  0
LINE
  8
22
 10
37.5198
 20
29.0470
 30
0.0000
 11
37.5198
 21
29.4210
 31
0.0000
  0
ARC
  8
22
 10
37.2206
 20
29.4210
 30
0.0000
 40
0.2992
 50
0.0000
 51
180.0000
  0
LINE
  8
22
 10
36.9215
 20
29.4210
 30
0.0000
 11
36.9215
 21
29.2714
 31
0.0000
  0
LINE
  8
22
 10
36.9215
 20
29.2714
 30
0.0000
 11
37.5198
 21
29.2714
 31
0.0000
  0
LINE
  8
22
 10
36.2781
 20
28.8227
 30
0.0000
 11
36.2781
 21
29.7201
 31
0.0000
  0
LINE
  8
22
 10
36.2781
 20
29.7201
 30
0.0000
 11
35.8294
 21
29.7201
 31
0.0000
  0
LINE
  8
22
 10
35.8294
 20
29.7201
 30
0.0000
 11
35.8294
 21
29.5705
 31
0.0000
  0
LINE
  8
22
 10
34.1591
 20
29.1966
 30
0.0000
 11
34.5330
 21
29.3462
 31
0.0000
  0
ARC
  8
22
 10
34.4610
 20
29.5262
 30
0.0000
 40
0.1939
 50
291.8014
 51
90.8190
  0
ARC
  8
22
 10
34.4704
 20
28.8709
 30
0.0000
 40
0.8493
 50
90.8190
 51
114.2391
  0
ARC
  8
22
 10
34.2311
 20
29.0165
 30
0.0000
 40
0.1939
 50
111.8014
 51
270.8190
  0
ARC
  8
22
 10
34.2157
 20
30.0910
 30
0.0000
 40
1.2684
 50
270.8190
 51
289.7904
  0
LINE
  8
22
 10
33.4791
 20
28.8227
 30
0.0000
 11
33.4791
 21
29.7201
 31
0.0000
  0
LINE
  8
22
 10
33.5165
 20
30.0941
 30
0.0000
 11
33.5165
 21
30.1689
 31
0.0000
  0
LINE
  8
22
 10
33.5165
 20
30.1689
 30
0.0000
 11
33.4417
 21
30.1689
 31
0.0000
  0
LINE
  8
22
 10
33.4417
 20
30.1689
 30
0.0000
 11
33.4417
 21
30.0941
 31
0.0000
  0
LINE
  8
22
 10
33.4417
 20
30.0941
 30
0.0000
 11
33.5165
 21
30.0941
 31
0.0000
  0
LINE
  8
22
 10
32.3216
 20
30.1689
 30
0.0000
 11
32.3216
 21
28.8227
 31
0.0000
  0
LINE
  8
22
 10
32.3216
 20
28.8227
 30
0.0000
 11
32.6956
 21
28.8227
 31
0.0000
  0
ARC
  8
22
 10
32.6956
 20
29.0470
 30
0.0000
 40
0.2244
 50
270.0000
 51
0.0008
  0
LINE
  8
22
 10
32.9199
 20
29.0470
 30
0.0000
 11
32.9199
 21
29.4958
 31
0.0000
  0
ARC
  8
22
 10
32.6956
 20
29.4958
 30
0.0000
 40
0.2244
 50
0.0000
 51
90.0000
  0
LINE
  8
22
 10
32.6956
 20
29.7201
 30
0.0000
 11
32.3216
 21
29.7201
 31
0.0000
  0
LINE
  8
22
 10
31.0811
 20
28.8227
 30
0.0000
 11
31.4550
 21
28.8227
 31
0.0000
  0
ARC
  8
22
 10
31.4550
 20
29.0470
 30
0.0000
 40
0.2244
 50
270.0000
 51
0.0008
  0
LINE
  8
22
 10
31.6794
 20
29.0470
 30
0.0000
 11
31.6794
 21
29.4210
 31
0.0000
  0
ARC
  8
22
 10
31.3802
 20
29.4210
 30
0.0000
 40
0.2992
 50
0.0000
 51
180.0000
  0
LINE
  8
22
 10
31.0811
 20
29.4210
 30
0.0000
 11
31.0811
 21
29.2714
 31
0.0000
  0
LINE
  8
22
 10
31.0811
 20
29.2714
 30
0.0000
 11
31.6794
 21
29.2714
 31
0.0000
  0
LINE
  8
48
 10
24.2316
 20
40.9004
 30
0.0000
 11
24.2316
 21
42.3736
 31
0.0000
  0
LINE
  8
48
 10
24.2316
 20
42.3736
 30
0.0000
 11
24.6408
 21
42.3736
 31
0.0000
  0
ARC
  8
48
 10
24.6408
 20
41.9643
 30
0.0000
 40
0.4092
 50
359.9996
 51
90.0000
  0
LINE
  8
48
 10
25.0500
 20
41.9643
 30
0.0000
 11
25.0500
 21
41.3096
 31
0.0000
  0
ARC
  8
48
 10
24.6408
 20
41.3096
 30
0.0000
 40
0.4092
 50
270.0004
 51
360.0000
  0
LINE
  8
48
 10
24.6408
 20
40.9004
 30
0.0000
 11
24.2316
 21
40.9004
 31
0.0000
  0
LINE
  8
48
 10
25.7505
 20
41.2277
 30
0.0000
 11
25.7505
 21
41.5551
 31
0.0000
  0
ARC
  8
48
 10
26.0778
 20
41.5551
 30
0.0000
 40
0.3274
 50
0.0000
 51
180.0000
  0
LINE
  8
48
 10
26.4052
 20
41.5551
 30
0.0000
 11
26.4052
 21
41.2277
 31
0.0000
  0
ARC
  8
48
 10
26.0778
 20
41.2277
 30
0.0000
 40
0.3274
 50
180.0000
 51
0.0000
  0
LINE
  8
48
 10
27.6139
 20
40.9004
 30
0.0000
 11
27.2865
 21
40.9004
 31
0.0000
  0
ARC
  8
48
 10
27.2865
 20
41.1459
 30
0.0000
 40
0.2455
 50
180.0000
 51
270.0000
  0
LINE
  8
48
 10
27.0410
 20
41.1459
 30
0.0000
 11
27.0410
 21
41.6369
 31
0.0000
  0
ARC
  8
48
 10
27.2865
 20
41.6369
 30
0.0000
 40
0.2455
 50
90.0000
 51
180.0000
  0
LINE
  8
48
 10
27.2865
 20
41.8825
 30
0.0000
 11
27.6139
 21
41.8825
 31
0.0000
  0
LINE
  8
48
 10
28.1181
 20
40.9004
 30
0.0000
 11
28.1181
 21
40.9822
 31
0.0000
  0
LINE
  8
48
 10
28.1181
 20
40.9822
 30
0.0000
 11
28.2000
 21
40.9822
 31
0.0000
  0
LINE
  8
48
 10
28.2000
 20
40.9822
 30
0.0000
 11
28.2000
 21
40.9004
 31
0.0000
  0
LINE
  8
48
 10
28.2000
 20
40.9004
 30
0.0000
 11
28.1181
 21
40.9004
 31
0.0000
  0
LINE
  8
48
 10
28.8077
 20
41.4733
 30
0.0000
 11
29.7898
 21
41.4733
 31
0.0000
  0
LINE
  8
48
 10
30.5248
 20
40.9004
 30
0.0000
 11
30.5248
 21
42.3736
 31
0.0000
  0
LINE
  8
48
 10
30.5248
 20
42.3736
 30
0.0000
 11
31.3432
 21
40.9004
 31
0.0000
  0
LINE
  8
48
 10
31.3432
 20
40.9004
 30
0.0000
 11
31.3432
 21
42.3736
 31
0.0000
  0
LINE
  8
48
 10
32.0436
 20
41.2277
 30
0.0000
 11
32.0436
 21
41.5551
 31
0.0000
  0
ARC
  8
48
 10
32.3710
 20
41.5551
 30
0.0000
 40
0.3274
 50
0.0000
 51
180.0000
  0
LINE
  8
48
 10
32.6984
 20
41.5551
 30
0.0000
 11
32.6984
 21
41.2277
 31
0.0000
  0
ARC
  8
48
 10
32.3710
 20
41.2277
 30
0.0000
 40
0.3274
 50
180.0000
 51
0.0000
  0
LINE
  8
48
 10
33.2716
 20
40.9004
 30
0.0000
 11
33.2716
 21
40.9822
 31
0.0000
  0
LINE
  8
48
 10
33.2716
 20
40.9822
 30
0.0000
 11
33.3534
 21
40.9822
 31
0.0000
  0
LINE
  8
48
 10
33.3534
 20
40.9822
 30
0.0000
 11
33.3534
 21
40.9004
 31
0.0000
  0
LINE
  8
48
 10
33.3534
 20
40.9004
 30
0.0000
 11
33.2716
 21
40.9004
 31
0.0000
  0
LINE
  8
48
 10
33.9158
 20
41.0231
 30
0.0000
 11
33.9158
 21
41.1050
 31
0.0000
  0
LINE
  8
48
 10
33.9158
 20
41.1050
 30
0.0000
 11
33.9976
 21
41.1050
 31
0.0000
  0
LINE
  8
48
 10
33.9976
 20
41.1050
 30
0.0000
 11
33.9976
 21
41.0231
 31
0.0000
  0
LINE
  8
48
 10
33.9976
 20
41.0231
 30
0.0000
 11
33.9158
 21
41.0231
 31
0.0000
  0
LINE
  8
48
 10
33.9158
 20
41.6779
 30
0.0000
 11
33.9158
 21
41.7597
 31
0.0000
  0
LINE
  8
48
 10
33.9158
 20
41.7597
 30
0.0000
 11
33.9976
 21
41.7597
 31
0.0000
  0
LINE
  8
48
 10
33.9976
 20
41.7597
 30
0.0000
 11
33.9976
 21
41.6779
 31
0.0000
  0
LINE
  8
48
 10
33.9976
 20
41.6779
 30
0.0000
 11
33.9158
 21
41.6779
 31
0.0000
  0
LINE
  8
48
 10
38.2016
 20
31.3754
 30
0.0000
 11
38.2016
 21
32.8486
 31
0.0000
  0
LINE
  8
48
 10
38.2016
 20
32.8486
 30
0.0000
 11
38.6108
 21
32.8486
 31
0.0000
  0
ARC
  8
48
 10
38.6108
 20
32.4393
 30
0.0000
 40
0.4092
 50
270.0000
 51
90.0000
  0
LINE
  8
48
 10
38.6108
 20
32.0301
 30
0.0000
 11
38.2016
 21
32.0301
 31
0.0000
  0
LINE
  8
48
 10
39.0200
 20
31.3754
 30
0.0000
 11
38.6927
 21
32.0301
 31
0.0000
  0
LINE
  8
48
 10
40.3143
 20
31.3754
 30
0.0000
 11
39.9051
 21
31.3754
 31
0.0000
  0
ARC
  8
48
 10
39.9051
 20
31.6209
 30
0.0000
 40
0.2455
 50
180.0000
 51
270.0000
  0
LINE
  8
48
 10
39.6596
 20
31.6209
 30
0.0000
 11
39.6596
 21
32.0301
 31
0.0000
  0
ARC
  8
48
 10
39.9870
 20
32.0301
 30
0.0000
 40
0.3274
 50
0.0000
 51
180.0000
  0
LINE
  8
48
 10
40.3143
 20
32.0301
 30
0.0000
 11
40.3143
 21
31.8664
 31
0.0000
  0
LINE
  8
48
 10
40.3143
 20
31.8664
 30
0.0000
 11
39.6596
 21
31.8664
 31
0.0000
  0
LINE
  8
48
 10
40.8984
 20
32.3575
 30
0.0000
 11
41.2258
 21
31.3754
 31
0.0000
  0
LINE
  8
48
 10
41.2258
 20
31.3754
 30
0.0000
 11
41.5532
 21
32.3575
 31
0.0000
  0
LINE
  8
48
 10
42.0768
 20
31.3754
 30
0.0000
 11
42.0768
 21
31.4572
 31
0.0000
  0
LINE
  8
48
 10
42.0768
 20
31.4572
 30
0.0000
 11
42.1586
 21
31.4572
 31
0.0000
  0
LINE
  8
48
 10
42.1586
 20
31.4572
 30
0.0000
 11
42.1586
 21
31.3754
 31
0.0000
  0
LINE
  8
48
 10
42.1586
 20
31.3754
 30
0.0000
 11
42.0768
 21
31.3754
 31
0.0000
  0
LINE
  8
48
 10
42.7210
 20
31.4981
 30
0.0000
 11
42.7210
 21
31.5800
 31
0.0000
  0
LINE
  8
48
 10
42.7210
 20
31.5800
 30
0.0000
 11
42.8028
 21
31.5800
 31
0.0000
  0
LINE
  8
48
 10
42.8028
 20
31.5800
 30
0.0000
 11
42.8028
 21
31.4981
 31
0.0000
  0
LINE
  8
48
 10
42.8028
 20
31.4981
 30
0.0000
 11
42.7210
 21
31.4981
 31
0.0000
  0
LINE
  8
48
 10
42.7210
 20
32.1529
 30
0.0000
 11
42.7210
 21
32.2347
 31
0.0000
  0
LINE
  8
48
 10
42.7210
 20
32.2347
 30
0.0000
 11
42.8028
 21
32.2347
 31
0.0000
  0
LINE
  8
48
 10
42.8028
 20
32.2347
 30
0.0000
 11
42.8028
 21
32.1529
 31
0.0000
  0
LINE
  8
48
 10
42.8028
 20
32.1529
 30
0.0000
 11
42.7210
 21
32.1529
 31
0.0000
  0
LINE
  8
48
 10
38.8564
 20
37.7253
 30
0.0000
 11
38.5290
 21
37.7253
 31
0.0000
  0
ARC
  8
48
 10
38.5290
 20
38.0527
 30
0.0000
 40
0.3274
 50
180.0000
 51
270.0000
  0
LINE
  8
48
 10
38.2016
 20
38.0527
 30
0.0000
 11
38.2016
 21
38.8712
 31
0.0000
  0
ARC
  8
48
 10
38.5290
 20
38.8712
 30
0.0000
 40
0.3274
 50
90.0005
 51
180.0000
  0
LINE
  8
48
 10
38.5290
 20
39.1986
 30
0.0000
 11
38.8564
 21
39.1986
 31
0.0000
  0
LINE
  8
48
 10
39.4777
 20
38.7075
 30
0.0000
 11
39.4777
 21
37.9709
 31
0.0000
  0
ARC
  8
48
 10
39.7232
 20
37.9709
 30
0.0000
 40
0.2455
 50
180.0000
 51
270.0000
  0
LINE
  8
48
 10
39.7232
 20
37.7253
 30
0.0000
 11
40.1324
 21
37.7253
 31
0.0000
  0
LINE
  8
48
 10
40.1324
 20
37.7253
 30
0.0000
 11
40.1324
 21
38.7075
 31
0.0000
  0
LINE
  8
48
 10
40.8501
 20
38.2983
 30
0.0000
 11
41.8322
 21
38.2983
 31
0.0000
  0
LINE
  8
48
 10
42.5708
 20
39.1986
 30
0.0000
 11
42.5708
 21
37.7253
 31
0.0000
  0
LINE
  8
48
 10
42.5708
 20
37.7253
 30
0.0000
 11
43.2256
 21
37.7253
 31
0.0000
  0
LINE
  8
48
 10
44.4344
 20
38.2983
 30
0.0000
 11
44.0661
 21
38.2983
 31
0.0000
  0
ARC
  8
48
 10
44.0661
 20
38.0118
 30
0.0000
 40
0.2865
 50
90.0000
 51
270.0000
  0
LINE
  8
48
 10
44.0661
 20
37.7253
 30
0.0000
 11
44.4344
 21
37.7253
 31
0.0000
  0
LINE
  8
48
 10
44.4344
 20
37.7253
 30
0.0000
 11
44.4344
 21
38.4620
 31
0.0000
  0
ARC
  8
48
 10
44.1889
 20
38.4620
 30
0.0000
 40
0.2455
 50
0.0000
 51
90.0000
  0
LINE
  8
48
 10
44.1889
 20
38.7075
 30
0.0000
 11
43.8615
 21
38.7075
 31
0.0000
  0
LINE
  8
48
 10
45.0771
 20
37.2343
 30
0.0000
 11
45.2408
 21
37.2343
 31
0.0000
  0
LINE
  8
48
 10
45.2408
 20
37.2343
 30
0.0000
 11
45.7319
 21
38.7075
 31
0.0000
  0
LINE
  8
48
 10
45.0771
 20
38.7075
 30
0.0000
 11
45.4045
 21
37.7253
 31
0.0000
  0
LINE
  8
48
 10
46.9707
 20
37.7253
 30
0.0000
 11
46.5615
 21
37.7253
 31
0.0000
  0
ARC
  8
48
 10
46.5615
 20
37.9709
 30
0.0000
 40
0.2455
 50
180.0000
 51
270.0000
  0
LINE
  8
48
 10
46.3159
 20
37.9709
 30
0.0000
 11
46.3159
 21
38.3801
 31
0.0000
  0
ARC
  8
48
 10
46.6433
 20
38.3801
 30
0.0000
 40
0.3274
 50
0.0000
 51
180.0000
  0
LINE
  8
48
 10
46.9707
 20
38.3801
 30
0.0000
 11
46.9707
 21
38.2164
 31
0.0000
  0
LINE
  8
48
 10
46.9707
 20
38.2164
 30
0.0000
 11
46.3159
 21
38.2164
 31
0.0000
  0
LINE
  8
48
 10
47.6643
 20
37.7253
 30
0.0000
 11
47.6643
 21
38.7075
 31
0.0000
  0
LINE
  8
48
 10
47.6643
 20
38.7075
 30
0.0000
 11
48.1553
 21
38.7075
 31
0.0000
  0
LINE
  8
48
 10
48.1553
 20
38.7075
 30
0.0000
 11
48.1553
 21
38.5438
 31
0.0000
  0
LINE
  8
48
 10
49.1769
 20
38.1346
 30
0.0000
 11
48.7677
 21
38.2983
 31
0.0000
  0
ARC
  8
48
 10
48.8465
 20
38.4953
 30
0.0000
 40
0.2122
 50
89.1816
 51
248.1986
  0
ARC
  8
48
 10
48.8362
 20
37.7781
 30
0.0000
 40
0.9294
 50
65.7610
 51
89.1816
  0
ARC
  8
48
 10
49.0981
 20
37.9375
 30
0.0000
 40
0.2122
 50
269.1816
 51
68.1989
  0
ARC
  8
48
 10
49.1149
 20
39.1132
 30
0.0000
 40
1.3880
 50
250.2089
 51
269.1815
  0
LINE
  8
48
 10
49.9224
 20
37.8481
 30
0.0000
 11
49.9224
 21
37.9300
 31
0.0000
  0
LINE
  8
48
 10
49.9224
 20
37.9300
 30
0.0000
 11
50.0043
 21
37.9300
 31
0.0000
  0
LINE
  8
48
 10
50.0043
 20
37.9300
 30
0.0000
 11
50.0043
 21
37.8481
 31
0.0000
  0
LINE
  8
48
 10
50.0043
 20
37.8481
 30
0.0000
 11
49.9224
 21
37.8481
 31
0.0000
  0
LINE
  8
48
 10
49.9224
 20
38.5029
 30
0.0000
 11
49.9224
 21
38.5847
 31
0.0000
  0
LINE
  8
48
 10
49.9224
 20
38.5847
 30
0.0000
 11
50.0043
 21
38.5847
 31
0.0000
  0
LINE
  8
48
 10
50.0043
 20
38.5847
 30
0.0000
 11
50.0043
 21
38.5029
 31
0.0000
  0
LINE
  8
48
 10
50.0043
 20
38.5029
 30
0.0000
 11
49.9224
 21
38.5029
 31
0.0000
  0
LINE
  8
48
 10
24.8864
 20
37.7253
 30
0.0000
 11
24.5590
 21
37.7253
 31
0.0000
  0
ARC
  8
48
 10
24.5590
 20
38.0527
 30
0.0000
 40
0.3274
 50
180.0000
 51
270.0000
  0
LINE
  8
48
 10
24.2316
 20
38.0527
 30
0.0000
 11
24.2316
 21
38.8712
 31
0.0000
  0
ARC
  8
48
 10
24.5590
 20
38.8712
 30
0.0000
 40
0.3274
 50
90.0005
 51
180.0000
  0
LINE
  8
48
 10
24.5590
 20
39.1986
 30
0.0000
 11
24.8864
 21
39.1986
 31
0.0000
  0
LINE
  8
48
 10
25.5077
 20
38.7075
 30
0.0000
 11
25.5077
 21
37.9709
 31
0.0000
  0
ARC
  8
48
 10
25.7532
 20
37.9709
 30
0.0000
 40
0.2455
 50
180.0000
 51
270.0000
  0
LINE
  8
48
 10
25.7532
 20
37.7253
 30
0.0000
 11
26.1624
 21
37.7253
 31
0.0000
  0
LINE
  8
48
 10
26.1624
 20
37.7253
 30
0.0000
 11
26.1624
 21
38.7075
 31
0.0000
  0
LINE
  8
48
 10
26.8347
 20
37.8481
 30
0.0000
 11
26.8347
 21
37.9300
 31
0.0000
  0
LINE
  8
48
 10
26.8347
 20
37.9300
 30
0.0000
 11
26.9166
 21
37.9300
 31
0.0000
  0
LINE
  8
48
 10
26.9166
 20
37.9300
 30
0.0000
 11
26.9166
 21
37.8481
 31
0.0000
  0
LINE
  8
48
 10
26.9166
 20
37.8481
 30
0.0000
 11
26.8347
 21
37.8481
 31
0.0000
  0
LINE
  8
48
 10
26.8347
 20
38.5029
 30
0.0000
 11
26.8347
 21
38.5847
 31
0.0000
  0
LINE
  8
48
 10
26.8347
 20
38.5847
 30
0.0000
 11
26.9166
 21
38.5847
 31
0.0000
  0
LINE
  8
48
 10
26.9166
 20
38.5847
 30
0.0000
 11
26.9166
 21
38.5029
 31
0.0000
  0
LINE
  8
48
 10
26.9166
 20
38.5029
 30
0.0000
 11
26.8347
 21
38.5029
 31
0.0000
  0
LINE
  8
48
 10
1.6990
 20
35.5325
 30
0.0000
 11
1.6990
 21
34.3048
 31
0.0000
  0
ARC
  8
48
 10
1.4534
 20
34.3048
 30
0.0000
 40
0.2455
 50
270.0015
 51
0.0000
  0
LINE
  8
48
 10
1.4534
 20
34.0593
 30
0.0000
 11
1.3716
 21
34.0593
 31
0.0000
  0
LINE
  8
48
 10
1.6581
 20
35.9417
 30
0.0000
 11
1.6581
 21
36.0236
 31
0.0000
  0
LINE
  8
48
 10
1.6581
 20
36.0236
 30
0.0000
 11
1.7399
 21
36.0236
 31
0.0000
  0
LINE
  8
48
 10
1.7399
 20
36.0236
 30
0.0000
 11
1.7399
 21
35.9417
 31
0.0000
  0
LINE
  8
48
 10
1.7399
 20
35.9417
 30
0.0000
 11
1.6581
 21
35.9417
 31
0.0000
  0
LINE
  8
48
 10
2.8753
 20
34.9596
 30
0.0000
 11
2.4661
 21
35.1233
 31
0.0000
  0
ARC
  8
48
 10
2.5449
 20
35.3203
 30
0.0000
 40
0.2122
 50
89.1816
 51
248.1986
  0
ARC
  8
48
 10
2.5346
 20
34.6031
 30
0.0000
 40
0.9294
 50
65.7610
 51
89.1816
  0
ARC
  8
48
 10
2.7965
 20
34.7625
 30
0.0000
 40
0.2122
 50
269.1816
 51
68.1989
  0
ARC
  8
48
 10
2.8133
 20
35.9382
 30
0.0000
 40
1.3880
 50
250.2089
 51
269.1815
  0
LINE
  8
48
 10
3.5821
 20
34.3867
 30
0.0000
 11
4.2369
 21
34.3867
 31
0.0000
  0
LINE
  8
48
 10
5.3529
 20
34.9596
 30
0.0000
 11
4.9437
 21
35.1233
 31
0.0000
  0
ARC
  8
48
 10
5.0225
 20
35.3203
 30
0.0000
 40
0.2122
 50
89.1816
 51
248.1986
  0
ARC
  8
48
 10
5.0123
 20
34.6031
 30
0.0000
 40
0.9294
 50
65.7610
 51
89.1816
  0
ARC
  8
48
 10
5.2741
 20
34.7625
 30
0.0000
 40
0.2122
 50
269.1816
 51
68.1989
  0
ARC
  8
48
 10
5.2909
 20
35.9382
 30
0.0000
 40
1.3880
 50
250.2089
 51
269.1815
  0
LINE
  8
48
 10
6.0898
 20
34.5504
 30
0.0000
 11
6.0898
 21
35.5325
 31
0.0000
  0
LINE
  8
48
 10
6.0489
 20
35.9417
 30
0.0000
 11
6.0489
 21
36.0236
 31
0.0000
  0
LINE
  8
48
 10
6.0489
 20
36.0236
 30
0.0000
 11
6.1307
 21
36.0236
 31
0.0000
  0
LINE
  8
48
 10
6.1307
 20
36.0236
 30
0.0000
 11
6.1307
 21
35.9417
 31
0.0000
  0
LINE
  8
48
 10
6.1307
 20
35.9417
 30
0.0000
 11
6.0489
 21
35.9417
 31
0.0000
  0
LINE
  8
48
 10
6.7880
 20
34.5504
 30
0.0000
 11
6.7880
 21
35.5325
 31
0.0000
  0
LINE
  8
48
 10
6.7880
 20
35.5325
 30
0.0000
 11
7.5246
 21
35.5325
 31
0.0000
  0
ARC
  8
48
 10
7.5246
 20
35.2870
 30
0.0000
 40
0.2455
 50
0.0000
 51
90.0000
  0
LINE
  8
48
 10
7.7701
 20
35.2870
 30
0.0000
 11
7.7701
 21
34.5504
 31
0.0000
  0
LINE
  8
48
 10
7.2791
 20
34.5504
 30
0.0000
 11
7.2791
 21
35.5325
 31
0.0000
  0
LINE
  8
48
 10
8.5464
 20
34.0593
 30
0.0000
 11
8.5464
 21
35.5325
 31
0.0000
  0
LINE
  8
48
 10
8.5464
 20
35.5325
 30
0.0000
 11
8.9557
 21
35.5325
 31
0.0000
  0
ARC
  8
48
 10
8.9557
 20
35.2870
 30
0.0000
 40
0.2455
 50
0.0000
 51
90.0000
  0
LINE
  8
48
 10
9.2012
 20
35.2870
 30
0.0000
 11
9.2012
 21
34.7959
 31
0.0000
  0
ARC
  8
48
 10
8.9557
 20
34.7959
 30
0.0000
 40
0.2455
 50
270.0000
 51
0.0000
  0
LINE
  8
48
 10
8.9557
 20
34.5504
 30
0.0000
 11
8.5464
 21
34.5504
 31
0.0000
  0
LINE
  8
48
 10
9.8400
 20
36.0236
 30
0.0000
 11
9.8400
 21
34.7959
 31
0.0000
  0
ARC
  8
48
 10
10.0855
 20
34.7959
 30
0.0000
 40
0.2455
 50
180.0000
 51
270.0000
  0
LINE
  8
48
 10
11.2733
 20
34.5504
 30
0.0000
 11
10.8641
 21
34.5504
 31
0.0000
  0
ARC
  8
48
 10
10.8641
 20
34.7959
 30
0.0000
 40
0.2455
 50
180.0000
 51
270.0000
  0
LINE
  8
48
 10
10.6186
 20
34.7959
 30
0.0000
 11
10.6186
 21
35.2051
 31
0.0000
  0
ARC
  8
48
 10
10.9460
 20
35.2051
 30
0.0000
 40
0.3274
 50
0.0000
 51
180.0000
  0
LINE
  8
48
 10
11.2733
 20
35.2051
 30
0.0000
 11
11.2733
 21
35.0414
 31
0.0000
  0
LINE
  8
48
 10
11.2733
 20
35.0414
 30
0.0000
 11
10.6186
 21
35.0414
 31
0.0000
  0
ARC
  8
48
 10
1.8217
 20
32.4802
 30
0.0000
 40
0.3683
 50
0.0000
 51
90.0000
  0
ARC
  8
48
 10
1.8217
 20
32.3754
 30
0.0000
 40
0.4732
 50
90.0000
 51
162.0549
  0
ARC
  8
48
 10
1.7945
 20
32.4802
 30
0.0000
 40
0.3956
 50
313.6022
 51
0.0000
  0
LINE
  8
48
 10
2.0673
 20
32.1938
 30
0.0000
 11
1.3716
 21
31.3754
 31
0.0000
  0
LINE
  8
48
 10
1.3716
 20
31.3754
 30
0.0000
 11
2.1900
 21
31.3754
 31
0.0000
  0
ARC
  8
48
 10
4.0722
 20
32.1120
 30
0.0000
 40
1.2140
 50
154.0109
 51
180.0000
  0
ARC
  8
48
 10
3.2674
 20
32.5457
 30
0.0000
 40
0.3028
 50
90.0000
 51
161.0756
  0
ARC
  8
48
 10
3.2674
 20
32.5457
 30
0.0000
 40
0.3028
 50
18.9237
 51
90.0001
  0
ARC
  8
48
 10
2.4626
 20
32.1120
 30
0.0000
 40
1.2140
 50
360.0000
 51
25.9897
  0
ARC
  8
48
 10
4.0722
 20
32.1120
 30
0.0000
 40
1.2140
 50
180.0000
 51
205.9889
  0
ARC
  8
48
 10
3.2674
 20
31.6782
 30
0.0000
 40
0.3028
 50
198.9251
 51
270.0001
  0
ARC
  8
48
 10
2.4626
 20
32.1120
 30
0.0000
 40
1.2140
 50
334.0105
 51
359.9999
  0
ARC
  8
48
 10
3.2674
 20
31.6782
 30
0.0000
 40
0.3028
 50
270.0000
 51
341.0759
  0
LINE
  8
48
 10
2.9400
 20
31.7027
 30
0.0000
 11
3.5948
 21
32.5212
 31
0.0000
  0
LINE
  8
48
 10
4.2671
 20
31.3754
 30
0.0000
 11
4.2671
 21
31.4572
 31
0.0000
  0
LINE
  8
48
 10
4.2671
 20
31.4572
 30
0.0000
 11
4.3489
 21
31.4572
 31
0.0000
  0
LINE
  8
48
 10
4.3489
 20
31.4572
 30
0.0000
 11
4.3489
 21
31.3754
 31
0.0000
  0
LINE
  8
48
 10
4.3489
 20
31.3754
 30
0.0000
 11
4.2671
 21
31.3754
 31
0.0000
  0
LINE
  8
48
 10
4.9394
 20
32.5212
 30
0.0000
 11
5.3486
 21
32.8486
 31
0.0000
  0
LINE
  8
48
 10
5.3486
 20
32.8486
 30
0.0000
 11
5.3486
 21
31.3754
 31
0.0000
  0
LINE
  8
48
 10
4.9394
 20
31.3754
 30
0.0000
 11
5.7578
 21
31.3754
 31
0.0000
  0
ARC
  8
48
 10
6.8761
 20
32.4802
 30
0.0000
 40
0.3683
 50
0.0000
 51
90.0000
  0
ARC
  8
48
 10
6.8761
 20
32.3754
 30
0.0000
 40
0.4732
 50
90.0000
 51
162.0549
  0
ARC
  8
48
 10
6.8488
 20
32.4802
 30
0.0000
 40
0.3956
 50
313.6022
 51
0.0000
  0
LINE
  8
48
 10
7.1216
 20
32.1938
 30
0.0000
 11
6.4260
 21
31.3754
 31
0.0000
  0
LINE
  8
48
 10
6.4260
 20
31.3754
 30
0.0000
 11
7.2444
 21
31.3754
 31
0.0000
  0
LINE
  8
48
 10
7.8349
 20
31.3754
 30
0.0000
 11
7.8349
 21
31.4572
 31
0.0000
  0
LINE
  8
48
 10
7.8349
 20
31.4572
 30
0.0000
 11
7.9167
 21
31.4572
 31
0.0000
  0
LINE
  8
48
 10
7.9167
 20
31.4572
 30
0.0000
 11
7.9167
 21
31.3754
 31
0.0000
  0
LINE
  8
48
 10
7.9167
 20
31.3754
 30
0.0000
 11
7.8349
 21
31.3754
 31
0.0000
  0
ARC
  8
48
 10
8.9573
 20
32.4802
 30
0.0000
 40
0.3683
 50
0.0000
 51
90.0000
  0
ARC
  8
48
 10
8.9573
 20
32.3754
 30
0.0000
 40
0.4732
 50
90.0000
 51
162.0549
  0
ARC
  8
48
 10
8.9300
 20
32.4802
 30
0.0000
 40
0.3956
 50
313.6022
 51
0.0000
  0
LINE
  8
48
 10
9.2028
 20
32.1938
 30
0.0000
 11
8.5072
 21
31.3754
 31
0.0000
  0
LINE
  8
48
 10
8.5072
 20
31.3754
 30
0.0000
 11
9.3256
 21
31.3754
 31
0.0000
  0
ARC
  8
48
 10
11.2078
 20
32.1120
 30
0.0000
 40
1.2140
 50
154.0109
 51
180.0000
  0
ARC
  8
48
 10
10.4029
 20
32.5457
 30
0.0000
 40
0.3028
 50
90.0000
 51
161.0756
  0
ARC
  8
48
 10
10.4029
 20
32.5457
 30
0.0000
 40
0.3028
 50
18.9237
 51
90.0001
  0
ARC
  8
48
 10
9.5982
 20
32.1120
 30
0.0000
 40
1.2140
 50
360.0000
 51
25.9897
  0
ARC
  8
48
 10
11.2078
 20
32.1120
 30
0.0000
 40
1.2140
 50
180.0000
 51
205.9889
  0
ARC
  8
48
 10
10.4029
 20
31.6782
 30
0.0000
 40
0.3028
 50
198.9251
 51
270.0001
  0
ARC
  8
48
 10
9.5981
 20
32.1120
 30
0.0000
 40
1.2140
 50
334.0105
 51
359.9999
  0
ARC
  8
48
 10
10.4029
 20
31.6782
 30
0.0000
 40
0.3028
 50
270.0000
 51
341.0759
  0
LINE
  8
48
 10
10.0756
 20
31.7027
 30
0.0000
 11
10.7303
 21
32.5212
 31
0.0000
  0
LINE
  8
48
 10
11.4803
 20
32.5212
 30
0.0000
 11
11.8895
 21
32.8486
 31
0.0000
  0
LINE
  8
48
 10
11.8895
 20
32.8486
 30
0.0000
 11
11.8895
 21
31.3754
 31
0.0000
  0
LINE
  8
48
 10
11.4803
 20
31.3754
 30
0.0000
 11
12.2987
 21
31.3754
 31
0.0000
  0
LINE
  8
48
 10
13.7853
 20
32.0301
 30
0.0000
 11
13.2942
 21
32.0301
 31
0.0000
  0
ARC
  8
48
 10
13.2942
 20
32.3575
 30
0.0000
 40
0.3274
 50
179.9995
 51
270.0000
  0
LINE
  8
48
 10
12.9669
 20
32.3575
 30
0.0000
 11
12.9669
 21
32.4393
 31
0.0000
  0
ARC
  8
48
 10
13.3761
 20
32.4393
 30
0.0000
 40
0.4092
 50
0.0000
 51
180.0000
  0
LINE
  8
48
 10
13.7853
 20
32.4393
 30
0.0000
 11
13.7853
 21
32.0301
 31
0.0000
  0
ARC
  8
48
 10
13.1306
 20
32.0301
 30
0.0000
 40
0.6548
 50
269.9997
 51
360.0000
  0
LINE
  8
48
 10
15.2463
 20
32.5212
 30
0.0000
 11
15.6555
 21
32.8486
 31
0.0000
  0
LINE
  8
48
 10
15.6555
 20
32.8486
 30
0.0000
 11
15.6555
 21
31.3754
 31
0.0000
  0
LINE
  8
48
 10
15.2463
 20
31.3754
 30
0.0000
 11
16.0647
 21
31.3754
 31
0.0000
  0
LINE
  8
48
 10
17.0602
 20
32.8486
 30
0.0000
 11
16.7329
 21
31.7027
 31
0.0000
  0
LINE
  8
48
 10
16.7329
 20
31.7027
 30
0.0000
 11
17.5513
 21
31.7027
 31
0.0000
  0
LINE
  8
48
 10
17.3058
 20
32.0301
 30
0.0000
 11
17.3058
 21
31.3754
 31
0.0000
  0
LINE
  8
48
 10
18.1913
 20
31.4981
 30
0.0000
 11
18.1913
 21
31.5800
 31
0.0000
  0
LINE
  8
48
 10
18.1913
 20
31.5800
 30
0.0000
 11
18.2732
 21
31.5800
 31
0.0000
  0
LINE
  8
48
 10
18.2732
 20
31.5800
 30
0.0000
 11
18.2732
 21
31.4981
 31
0.0000
  0
LINE
  8
48
 10
18.2732
 20
31.4981
 30
0.0000
 11
18.1913
 21
31.4981
 31
0.0000
  0
LINE
  8
48
 10
18.1913
 20
32.1529
 30
0.0000
 11
18.1913
 21
32.2347
 31
0.0000
  0
LINE
  8
48
 10
18.1913
 20
32.2347
 30
0.0000
 11
18.2732
 21
32.2347
 31
0.0000
  0
LINE
  8
48
 10
18.2732
 20
32.2347
 30
0.0000
 11
18.2732
 21
32.1529
 31
0.0000
  0
LINE
  8
48
 10
18.2732
 20
32.1529
 30
0.0000
 11
18.1913
 21
32.1529
 31
0.0000
  0
LINE
  8
48
 10
19.2405
 20
32.8486
 30
0.0000
 11
18.9132
 21
31.7027
 31
0.0000
  0
LINE
  8
48
 10
18.9132
 20
31.7027
 30
0.0000
 11
19.7316
 21
31.7027
 31
0.0000
  0
LINE
  8
48
 10
19.4861
 20
32.0301
 30
0.0000
 11
19.4861
 21
31.3754
 31
0.0000
  0
LINE
  8
48
 10
20.3997
 20
32.5212
 30
0.0000
 11
20.8090
 21
32.8486
 31
0.0000
  0
LINE
  8
48
 10
20.8090
 20
32.8486
 30
0.0000
 11
20.8090
 21
31.3754
 31
0.0000
  0
LINE
  8
48
 10
20.3997
 20
31.3754
 30
0.0000
 11
21.2182
 21
31.3754
 31
0.0000
  0
ENDSEC
  0
EOF
