0
SECTION
2
HEADER
9
$INSUNITS
70
4
9
$ACADVER
1
AC1014
9
$HANDSEED
5
FFFF
0
ENDSEC
0
SECTION
2
TABLES
0
TABLE
2
VPORT
5
8
100
AcDbSymbolTable
0
ENDTAB
0
TABLE
2
LTYPE
5
5
100
AcDbSymbolTable
0
LTYPE
5
14
100
AcDbSymbolTableRecord
100
AcDbLinetypeTableRecord
2
BYBLOCK
70
0
0
LTYPE
5
15
100
AcDbSymbolTableRecord
100
AcDbLinetypeTableRecord
2
BYLAYER
70
0
0
ENDTAB
0
TABLE
2
LAYER
5
2
100
AcDbSymbolTable
70
2
0
LAYER
5
50
100
AcDbSymbolTableRecord
100
AcDbLayerTableRecord
2
0
70
0
6
CONTINUOUS
0
ENDTAB
0
TABLE
2
STYLE
5
3
100
AcDbSymbolTable
70
1
0
STYLE
5
11
100
AcDbSymbolTableRecord
100
AcDbTextStyleTableRecord
2
STANDARD
70
0
0
ENDTAB
0
TABLE
2
VIEW
5
6
100
AcDbSymbolTable
70
0
0
ENDTAB
0
TABLE
2
UCS
5
7
100
AcDbSymbolTable
70
0
0
ENDTAB
0
TABLE
2
APPID
5
9
100
AcDbSymbolTable
70
2
0
APPID
5
12
100
AcDbSymbolTableRecord
100
AcDbRegAppTableRecord
2
ACAD
70
0
0
ENDTAB
0
TABLE
2
DIMSTYLE
5
A
100
AcDbSymbolTable
70
1
0
ENDTAB
0
TABLE
2
BLOCK_RECORD
5
1
100
AcDbSymbolTable
70
1
0
BLOCK_RECORD
5
1F
100
AcDbSymbolTableRecord
100
AcDbBlockTableRecord
2
*MODEL_SPACE
0
BLOCK_RECORD
5
1B
100
AcDbSymbolTableRecord
100
AcDbBlockTableRecord
2
*PAPER_SPACE
0
ENDTAB
0
ENDSEC
0
SECTION
2
BLOCKS
0
BLOCK
5
20
100
AcDbEntity
100
AcDbBlockBegin
2
*MODEL_SPACE
0
ENDBLK
5
21
100
AcDbEntity
100
AcDbBlockEnd
0
BLOCK
5
1C
100
AcDbEntity
100
AcDbBlockBegin
2
*PAPER_SPACE
0
ENDBLK
5
1D
100
AcDbEntity
100
AcDbBlockEnd
0
ENDSEC
0
SECTION
2
ENTITIES
0
LINE
5
100
100
AcDbEntity
8
0
100
AcDbLine
10
29.999999999999982
20
-61.5
30
0
11
-29.999999999999858
21
-61.5
31
0
0
ARC
5
101
100
AcDbEntity
8
0
100
AcDbCircle
10
29.999999999999982
20
-44.5
30
0
40
17
210
0
220
0
230
1
100
AcDbArc
50
269.99999999999994
51
360
0
LINE
5
102
100
AcDbEntity
8
0
100
AcDbLine
10
46.999999999999986
20
44.499999999999986
30
0
11
46.999999999999993
21
-44.5
31
0
0
ARC
5
103
100
AcDbEntity
8
0
100
AcDbCircle
10
29.999999999999964
20
44.499999999999986
30
0
40
17.000000000000021
210
0
220
-0
230
1
100
AcDbArc
50
0
51
89.999999999999972
0
LINE
5
104
100
AcDbEntity
8
0
100
AcDbLine
10
-30.000000000000018
20
61.499999999999986
30
0
11
29.999999999999982
21
61.5
31
0
0
ARC
5
105
100
AcDbEntity
8
0
100
AcDbCircle
10
-30.000000000000004
20
44.5
30
0
40
16.999999999999986
210
0
220
-0
230
1
100
AcDbArc
50
90
51
180
0
LINE
5
106
100
AcDbEntity
8
0
100
AcDbLine
10
-46.999999999999986
20
44.499999999999993
30
0
11
-46.999999999999915
21
-44.499999999999957
31
0
0
ARC
5
107
100
AcDbEntity
8
0
100
AcDbCircle
10
-29.999999999999854
20
-44.49999999999995
30
0
40
17.00000000000006
210
0
220
0
230
1
100
AcDbArc
50
180
51
270
0
ARC
5
108
100
AcDbEntity
8
0
100
AcDbCircle
10
29.999999999999982
20
-44.5
30
0
40
20
210
0
220
0
230
1
100
AcDbArc
50
269.99999999999994
51
360
0
LINE
5
109
100
AcDbEntity
8
0
100
AcDbLine
10
49.999999999999986
20
44.499999999999986
30
0
11
49.999999999999993
21
-44.5
31
0
0
ARC
5
110
100
AcDbEntity
8
0
100
AcDbCircle
10
29.999999999999964
20
44.499999999999986
30
0
40
20.000000000000018
210
-0
220
0
230
1
100
AcDbArc
50
-0.20457433403061315
51
89.999999999999943
0
LINE
5
111
100
AcDbEntity
8
0
100
AcDbLine
10
-30.000000000000018
20
64.499999999999986
30
0
11
29.999999999999982
21
64.5
31
0
0
ARC
5
112
100
AcDbEntity
8
0
100
AcDbCircle
10
-30.000000000000004
20
44.5
30
0
40
19.999999999999972
210
0
220
-0
230
1
100
AcDbArc
50
90
51
180
0
LINE
5
113
100
AcDbEntity
8
0
100
AcDbLine
10
-49.999999999999986
20
44.499999999999986
30
0
11
-49.999999999999915
21
-44.499999999999964
31
0
0
ARC
5
114
100
AcDbEntity
8
0
100
AcDbCircle
10
-29.999999999999854
20
-44.49999999999995
30
0
40
20.000000000000057
210
0
220
0
230
1
100
AcDbArc
50
180
51
270
0
LINE
5
115
100
AcDbEntity
8
0
100
AcDbLine
10
29.999999999999982
20
-64.5
30
0
11
-29.999999999999858
21
-64.5
31
0
0
CIRCLE
5
116
100
AcDbEntity
8
0
100
AcDbCircle
10
32.499999999999993
20
-49.5
30
0
40
4.5
210
0
220
-0
230
1
0
CIRCLE
5
117
100
AcDbEntity
8
0
100
AcDbCircle
10
-32.500000000000014
20
-49.5
30
0
40
4.5
210
0
220
-0
230
1
0
CIRCLE
5
118
100
AcDbEntity
8
0
100
AcDbCircle
10
-10.500000000000023
20
49
30
0
40
4.4999999999999991
210
0
220
-0
230
1
0
CIRCLE
5
119
100
AcDbEntity
8
0
100
AcDbCircle
10
10.499999999999979
20
49
30
0
40
4.4999999999999991
210
0
220
-0
230
1
0
CIRCLE
5
120
100
AcDbEntity
8
0
100
AcDbCircle
10
-1.7763568394002505e-14
20
-10.499999999999998
30
0
40
16.5
210
0
220
-0
230
1
0
LWPOLYLINE
5
121
100
AcDbEntity
8
0
100
AcDbPolyline
90
8
70
1
43
0.0
10
-29.999999999999858
20
-54.500000000000014
42
-0.41421356237309492
10
-39.999999999999915
20
-44.499999999999957
10
-39.999999999999986
20
44.499999999999993
42
-0.41421356237309492
10
-30.000000000000018
20
54.499999999999986
10
29.999999999999972
20
54.5
42
-0.41421356237309476
10
39.999999999999986
20
44.499999999999986
10
39.999999999999986
20
-44.500000000000014
42
-0.41421356237309476
10
29.999999999999982
20
-54.5
0
CIRCLE
5
122
100
AcDbEntity
8
0
100
AcDbCircle
10
-32.500000000000014
20
-49.5
30
0
40
3.0000000000000027
210
0
220
0
230
1
0
CIRCLE
5
123
100
AcDbEntity
8
0
100
AcDbCircle
10
-32.500000000000014
20
-49.5
30
0
40
1.7499999999999982
210
0
220
0
230
1
0
CIRCLE
5
124
100
AcDbEntity
8
0
100
AcDbCircle
10
32.499999999999993
20
-49.5
30
0
40
3.0000000000000004
210
0
220
0
230
1
0
CIRCLE
5
125
100
AcDbEntity
8
0
100
AcDbCircle
10
32.499999999999993
20
-49.5
30
0
40
1.7500000000000002
210
0
220
0
230
1
0
CIRCLE
5
126
100
AcDbEntity
8
0
100
AcDbCircle
10
-10.500000000000023
20
49
30
0
40
3.0000000000000004
210
0
220
0
230
1
0
CIRCLE
5
127
100
AcDbEntity
8
0
100
AcDbCircle
10
-10.500000000000023
20
49
30
0
40
1.7500000000000002
210
0
220
0
230
1
0
CIRCLE
5
128
100
AcDbEntity
8
0
100
AcDbCircle
10
10.499999999999979
20
49
30
0
40
3.0000000000000004
210
0
220
0
230
1
0
CIRCLE
5
129
100
AcDbEntity
8
0
100
AcDbCircle
10
10.499999999999979
20
49
30
0
40
1.7500000000000002
210
0
220
0
230
1
0
LINE
5
130
100
AcDbEntity
8
0
100
AcDbLine
10
0
20
0
30
0
11
-1.7763568394002505e-14
21
81.386379725593827
31
0
0
LINE
5
131
100
AcDbEntity
8
0
100
AcDbLine
10
8.9999999999999876
20
54
30
0
11
-9.000000000000016
21
54
31
0
0
LINE
5
132
100
AcDbEntity
8
0
100
AcDbLine
10
-9.000000000000016
20
54
30
0
11
-9.0000000000000178
21
54.499999999999993
31
0
0
LINE
5
133
100
AcDbEntity
8
0
100
AcDbLine
10
8.9999999999999876
20
54
30
0
11
8.9999999999999858
21
54.499999999999993
31
0
0
LINE
5
134
100
AcDbEntity
8
0
100
AcDbLine
10
32.999999999999986
20
-36.5
30
0
11
32.999999999999986
21
15.499999999999989
31
0
0
LINE
5
135
100
AcDbEntity
8
0
100
AcDbLine
10
-26.000000000000021
20
-43.5
30
0
11
25.999999999999986
21
-43.5
31
0
0
LINE
5
136
100
AcDbEntity
8
0
100
AcDbLine
10
-33.000000000000028
20
15.500000000000007
30
0
11
-33.000000000000028
21
-36.5
31
0
0
LINE
5
137
100
AcDbEntity
8
0
100
AcDbLine
10
25.999999999999986
20
22.500000000000004
30
0
11
-26.000000000000014
21
22.500000000000004
31
0
0
CIRCLE
5
138
100
AcDbEntity
8
0
100
AcDbCircle
10
34.999999999999993
20
35.000000000000007
30
0
40
3.0000000000000018
210
0
220
0
230
1
0
CIRCLE
5
139
100
AcDbEntity
8
0
100
AcDbCircle
10
34.999999999999993
20
35.000000000000007
30
0
40
1.2500000000000004
210
0
220
0
230
1
0
LINE
5
140
100
AcDbEntity
8
0
100
AcDbLine
10
34.999999999999993
20
35.000000000000007
30
0
11
34.999999999999993
21
-39.999999999999993
31
0
0
LINE
5
141
100
AcDbEntity
8
0
100
AcDbLine
10
-1.3095730603003852e-15
20
6.0000000000000009
30
0
11
35.000000521540642
21
5.9999999999999654
31
0
0
CIRCLE
5
142
100
AcDbEntity
8
0
100
AcDbCircle
10
34.999999999999993
20
9.9999999999999645
30
0
40
3.0000000000000018
210
0
220
0
230
1
0
CIRCLE
5
143
100
AcDbEntity
8
0
100
AcDbCircle
10
34.999999999999993
20
9.9999999999999645
30
0
40
1.2499999999999987
210
0
220
0
230
1
0
CIRCLE
5
144
100
AcDbEntity
8
0
100
AcDbCircle
10
34.999999999999993
20
-39.999999999999993
30
0
40
3.0000000000000009
210
0
220
0
230
1
0
CIRCLE
5
145
100
AcDbEntity
8
0
100
AcDbCircle
10
34.999999999999993
20
-39.999999999999993
30
0
40
1.25
210
0
220
0
230
1
0
LINE
5
146
100
AcDbEntity
8
0
100
AcDbLine
10
10.499999999999979
20
49
30
0
11
-10.500000000000023
21
49
31
0
0
CIRCLE
5
147
100
AcDbEntity
8
0
100
AcDbCircle
10
-2.2204460492503131e-14
20
49
30
0
40
3
210
0
220
0
230
1
0
CIRCLE
5
148
100
AcDbEntity
8
0
100
AcDbCircle
10
-2.2204460492503131e-14
20
49
30
0
40
1.25
210
0
220
0
230
1
0
CIRCLE
5
149
100
AcDbEntity
8
0
100
AcDbCircle
10
-35.000000000000007
20
34.999999999999986
30
0
40
3.0000000000000018
210
0
220
0
230
1
0
CIRCLE
5
150
100
AcDbEntity
8
0
100
AcDbCircle
10
-35.000000000000007
20
34.999999999999986
30
0
40
1.2500000000000004
210
0
220
0
230
1
0
CIRCLE
5
151
100
AcDbEntity
8
0
100
AcDbCircle
10
-34.999999999999993
20
10.000000074505781
30
0
40
3.0000000000000018
210
0
220
0
230
1
0
CIRCLE
5
152
100
AcDbEntity
8
0
100
AcDbCircle
10
-34.999999999999993
20
10.000000074505781
30
0
40
1.2499999999999987
210
0
220
0
230
1
0
CIRCLE
5
153
100
AcDbEntity
8
0
100
AcDbCircle
10
-34.999999999999972
20
-40.000000000000007
30
0
40
3.0000000000000009
210
0
220
0
230
1
0
CIRCLE
5
154
100
AcDbEntity
8
0
100
AcDbCircle
10
-34.999999999999972
20
-40.000000000000007
30
0
40
1.25
210
0
220
0
230
1
0
LWPOLYLINE
5
155
100
AcDbEntity
8
0
100
AcDbPolyline
90
8
70
1
43
0.0
10
42.999999999999986
20
-44.5
10
42.999999999999979
20
44.499999999999986
42
0.41421356237309476
10
29.999999999999979
20
57.5
10
-30.000000000000004
20
57.499999999999972
42
0.4142135623730952
10
-42.999999999999979
20
44.499999999999993
10
-42.999999999999908
20
-44.499999999999957
42
0.41421356237309476
10
-29.999999999999858
20
-57.5
10
29.999999999999972
20
-57.5
42
0.4142135623730952
0
ARC
5
156
100
AcDbEntity
8
0
100
AcDbCircle
10
29.999999999999964
20
44.499999999999986
30
0
40
13.000000000000016
210
0
220
0
230
1
100
AcDbArc
50
-0.20457433403061315
51
0
0
ENDSEC
0
SECTION
2
OBJECTS
0
DICTIONARY
5
C
100
AcDbDictionary
3
ACAD_GROUP
350
D
3
ACAD_MLINESTYLE
350
17
0
DICTIONARY
5
D
100
AcDbDictionary
0
DICTIONARY
5
1A
330
C
100
AcDbDictionary
0
DICTIONARY
5
17
100
AcDbDictionary
0
ENDSEC
0
EOF
