0
SECTION
2
HEADER
9
$INSUNITS
70
4
9
$ACADVER
1
AC1014
9
$HANDSEED
5
FFFF
0
ENDSEC
0
SECTION
2
TABLES
0
TABLE
2
VPORT
5
8
100
AcDbSymbolTable
0
ENDTAB
0
TABLE
2
LTYPE
5
5
100
AcDbSymbolTable
0
LTYPE
5
14
100
AcDbSymbolTableRecord
100
AcDbLinetypeTableRecord
2
BYBLOCK
70
0
0
LTYPE
5
15
100
AcDbSymbolTableRecord
100
AcDbLinetypeTableRecord
2
BYLAYER
70
0
0
ENDTAB
0
TABLE
2
LAYER
5
2
100
AcDbSymbolTable
70
2
0
LAYER
5
50
100
AcDbSymbolTableRecord
100
AcDbLayerTableRecord
2
0
70
0
6
CONTINUOUS
0
ENDTAB
0
TABLE
2
STYLE
5
3
100
AcDbSymbolTable
70
1
0
STYLE
5
11
100
AcDbSymbolTableRecord
100
AcDbTextStyleTableRecord
2
STANDARD
70
0
0
ENDTAB
0
TABLE
2
VIEW
5
6
100
AcDbSymbolTable
70
0
0
ENDTAB
0
TABLE
2
UCS
5
7
100
AcDbSymbolTable
70
0
0
ENDTAB
0
TABLE
2
APPID
5
9
100
AcDbSymbolTable
70
2
0
APPID
5
12
100
AcDbSymbolTableRecord
100
AcDbRegAppTableRecord
2
ACAD
70
0
0
ENDTAB
0
TABLE
2
DIMSTYLE
5
A
100
AcDbSymbolTable
70
1
0
ENDTAB
0
TABLE
2
BLOCK_RECORD
5
1
100
AcDbSymbolTable
70
1
0
BLOCK_RECORD
5
1F
100
AcDbSymbolTableRecord
100
AcDbBlockTableRecord
2
*MODEL_SPACE
0
BLOCK_RECORD
5
1B
100
AcDbSymbolTableRecord
100
AcDbBlockTableRecord
2
*PAPER_SPACE
0
ENDTAB
0
ENDSEC
0
SECTION
2
BLOCKS
0
BLOCK
5
20
100
AcDbEntity
100
AcDbBlockBegin
2
*MODEL_SPACE
0
ENDBLK
5
21
100
AcDbEntity
100
AcDbBlockEnd
0
BLOCK
5
1C
100
AcDbEntity
100
AcDbBlockBegin
2
*PAPER_SPACE
0
ENDBLK
5
1D
100
AcDbEntity
100
AcDbBlockEnd
0
ENDSEC
0
SECTION
2
ENTITIES
0
CIRCLE
5
100
100
AcDbEntity
8
0
100
AcDbCircle
10
4.4408920985006262e-15
20
-59.5
30
0
40
1.25
210
0
220
-0
230
1
0
CIRCLE
5
101
100
AcDbEntity
8
0
100
AcDbCircle
10
4.4408920985006262e-15
20
-59.5
30
0
40
3
210
0
220
0
230
1
0
CIRCLE
5
102
100
AcDbEntity
8
0
100
AcDbCircle
10
4.4408920985006262e-15
20
-59.5
30
0
40
1.25
210
0
220
-0
230
1
0
CIRCLE
5
103
100
AcDbEntity
8
0
100
AcDbCircle
10
10.500000000000005
20
-59.5
30
0
40
4.5
210
0
220
0
230
1
0
CIRCLE
5
104
100
AcDbEntity
8
0
100
AcDbCircle
10
-10.499999999999996
20
-59.5
30
0
40
4.5
210
0
220
0
230
1
0
CIRCLE
5
105
100
AcDbEntity
8
0
100
AcDbCircle
10
34.999999999999993
20
-45.499999999999986
30
0
40
1.25
210
0
220
-0
230
1
0
CIRCLE
5
106
100
AcDbEntity
8
0
100
AcDbCircle
10
-35.000000000000007
20
-45.500000000000007
30
0
40
1.25
210
0
220
-0
230
1
0
SPLINE
5
107
100
AcDbEntity
8
0
100
AcDbSpline
70
0
71
3
72
66
73
62
74
0
42
0.000000001
43
0.0000000001
44
0.0000000001
40
0.89999999999999858
40
0.89999999999999858
40
0.89999999999999858
40
0.89999999999999858
40
2.8002530949951492
40
2.8002530949951492
40
3.0169754940838729
40
3.0169754940838729
40
3.4365735724304969
40
3.4365735724304969
40
3.8639995990392464
40
3.8639995990392464
40
4.3022938400063744
40
4.3022938400063744
40
4.9972350407763209
40
4.9972350407763209
40
7.9923358983380695
40
7.9923358983380695
40
21.805891479324551
40
21.805891479324551
40
22.995334816205716
40
22.995334816205716
40
24.134678613445644
40
24.134678613445644
40
25.299695029832129
40
25.299695029832129
40
26.492833854116149
40
26.492833854116149
40
27.348124194223267
40
27.348124194223267
40
27.709323981843148
40
27.709323981843148
40
28.521918097005226
40
28.521918097005226
40
30.065721575830288
40
30.065721575830288
40
30.298549879204799
40
30.298549879204799
40
30.494323734813307
40
30.494323734813307
40
30.694604313465327
40
30.694604313465327
40
30.899281760334578
40
30.899281760334578
40
30.984252798308521
40
30.984252798308521
40
31.106224392164908
40
31.106224392164908
40
31.325532414561522
40
31.325532414561522
40
31.82081244394454
40
31.82081244394454
40
32.767938547328953
40
32.767938547328953
40
32.814563272623076
40
32.814563272623076
40
32.902519726143964
40
32.902519726143964
40
32.992075869363561
40
32.992075869363561
40
33.083866559085166
40
33.083866559085166
40
33.223676094060508
40
33.223676094060508
40
33.223676094060508
40
33.223676094060508
10
-8.9999999999999627
20
-65.839999999999989
30
0
10
-15.334176983317134
20
-65.839999999999989
30
0
10
-21.668353966634328
20
-65.840000000000003
30
0
10
-28.724938946913912
20
-65.840000000000003
30
0
10
-29.444970248901313
20
-65.84960121688755
30
0
10
-31.551437701946409
20
-65.817812362297417
30
0
10
-32.921615624748959
20
-65.528776019357451
30
0
10
-35.492832593047517
20
-64.449911029719942
30
0
10
-36.667421455249453
20
-63.660520777817744
30
0
10
-38.671358240323372
20
-61.660885895610676
30
0
10
-39.470786830574106
20
-60.460947836904886
30
0
10
-40.877894464175711
20
-57.060355714442807
30
0
10
-40.839999999999996
20
-55.551983263240771
30
0
10
-40.839999999999996
20
-49.144424272613414
30
0
10
-40.839999999999996
20
-43.961289335099977
30
0
10
-40.839999999999996
20
-14.971580493673819
30
0
10
-40.839999999999996
20
8.7714472208051397
30
0
10
-40.839999999999996
20
34.471764628098406
30
0
10
-40.876093950031631
20
35.157449178876917
30
0
10
-40.19570207835153
20
37.935400224855812
30
0
10
-39.604423930567862
20
39.213581791788926
30
0
10
-37.960045238548609
20
41.494435373629614
30
0
10
-36.913179670722812
20
42.46796488065327
30
0
10
-34.484012281597273
20
43.973580698953285
30
0
10
-33.11815166437971
20
44.479504339718517
30
0
10
-30.684453831450895
20
44.867059072533351
30
0
10
-30.488120197340915
20
44.840000000000003
30
0
10
-22.372081726856049
20
44.840000000000003
30
0
10
-19.969919556714832
20
44.840000000000003
30
0
10
-12.188214994766533
20
44.840000000000003
30
0
10
-6.818195146156862
20
44.840000000000003
30
0
10
8.7049186401365635
20
44.840000000000003
30
0
10
18.8426695097574
20
44.840000000000011
30
0
10
30.472545352118757
20
44.840000000000011
30
0
10
31.463786942570529
20
44.868487911575215
30
0
10
34.406145588329828
20
44.001629537267277
30
0
10
35.657007585119295
20
43.350675888100234
30
0
10
37.862298874243194
20
41.597536693393302
30
0
10
38.787330611731043
20
40.502955803118404
30
0
10
40.17703030126426
20
38.000707175521519
30
0
10
40.617379867972019
20
36.611700661501075
30
0
10
40.840206828893635
20
34.59113430968894
30
0
10
40.83999999999989
20
34.142302302945176
30
0
10
40.83999999999989
20
30.769447915511083
30
0
10
40.839999999999897
20
28.787803844928955
30
0
10
40.839999999999897
20
23.260601612033014
30
0
10
40.839999999999904
20
19.720066930294536
30
0
10
40.839999999999918
20
8.2200590810709002
30
0
10
40.839999999999918
20
0.27471824548156332
30
0
10
40.839999999999932
20
-22.791549441458379
30
0
10
40.839999999999961
20
-37.889461890740527
30
0
10
40.839999999999968
20
-53.680644379469584
30
0
10
40.849507313051944
20
-54.41925869272314
30
0
10
40.818825843223507
20
-56.544085746926996
30
0
10
40.530798524739367
20
-57.914454421059808
30
0
10
39.453642465871276
20
-60.486311118938076
30
0
10
38.665148203270547
20
-61.661463255613221
30
0
10
36.666911891651019
20
-63.666666182910134
30
0
10
35.467623456319913
20
-64.466979450090179
30
0
10
32.149416862821312
20
-65.842627537803594
30
0
10
30.468994938124606
20
-65.839999999999975
30
0
10
29.999999999999986
20
-65.839999999999975
30
0
0
LINE
5
108
100
AcDbEntity
8
0
100
AcDbLine
10
29.999999999999986
20
-65.839999999999975
30
0
11
8.999999999999968
21
-65.839999999999989
31
0
0
LINE
5
109
100
AcDbEntity
8
0
100
AcDbLine
10
2.2000000000000011
20
-64.5
30
0
11
9
21
-64.5
31
0
0
LINE
5
110
100
AcDbEntity
8
0
100
AcDbLine
10
-2.2000000000000002
20
-64.5
30
0
11
2.2000000000000002
21
-64.5
31
0
0
LINE
5
111
100
AcDbEntity
8
0
100
AcDbLine
10
-9.0000000000000053
20
-64.5
30
0
11
-2.2000000000000011
21
-64.5
31
0
0
LINE
5
112
100
AcDbEntity
8
0
100
AcDbLine
10
-26.000000000000007
20
-33
30
0
11
25.999999999999996
21
-33
31
0
0
LINE
5
113
100
AcDbEntity
8
0
100
AcDbLine
10
0
20
0
30
0
11
0
21
-72.500000283122048
31
0
0
CIRCLE
5
114
100
AcDbEntity
8
0
100
AcDbCircle
10
34.999999999999993
20
-45.499999999999986
30
0
40
3.0000000000000018
210
0
220
0
230
1
0
CIRCLE
5
115
100
AcDbEntity
8
0
100
AcDbCircle
10
4.4408920985006262e-15
20
-59.5
30
0
40
3
210
0
220
0
230
1
0
CIRCLE
5
116
100
AcDbEntity
8
0
100
AcDbCircle
10
-35.000000000000007
20
-45.500000000000007
30
0
40
3.0000000000000018
210
0
220
0
230
1
0
LWPOLYLINE
5
117
100
AcDbEntity
8
0
100
AcDbPolyline
90
4
70
1
43
0.0
10
-38.000000566244125
20
-53.499999999999986
10
38.000000566244125
20
-53.499999999999986
10
38.000000566244132
20
-37.499999999999993
10
-38.000000566244132
20
-37.500000000000007
0
CIRCLE
5
118
100
AcDbEntity
8
0
100
AcDbCircle
10
34.999999999999993
20
-45.499999999999986
30
0
40
1.7500000000000009
210
0
220
0
230
1
0
CIRCLE
5
119
100
AcDbEntity
8
0
100
AcDbCircle
10
-35.000000000000007
20
-45.500000000000007
30
0
40
1.7500000000000022
210
0
220
0
230
1
0
ENDSEC
0
SECTION
2
OBJECTS
0
DICTIONARY
5
C
100
AcDbDictionary
3
ACAD_GROUP
350
D
3
ACAD_MLINESTYLE
350
17
0
DICTIONARY
5
D
100
AcDbDictionary
0
DICTIONARY
5
1A
330
C
100
AcDbDictionary
0
DICTIONARY
5
17
100
AcDbDictionary
0
ENDSEC
0
EOF
